<svg width="549" height="97" viewBox="0 0 549 97" fill="none" xmlns="http://www.w3.org/2000/svg">
<mask id="path-1-outside-1_37_2" maskUnits="userSpaceOnUse" x="-4" y="-4" width="557" height="105" fill="black">
<rect fill="white" x="-4" y="-4" width="557" height="105"/>
<path d="M0.875 2.125C10.2083 2.45833 17.6667 2.625 23.25 2.625C33.6667 2.29167 40.0625 2.125 42.4375 2.125C46.3125 2.125 49.9583 2.29167 53.375 2.625C56.7917 2.95833 60.3125 3.58333 63.9375 4.5C67.6042 5.375 70.9167 6.54167 73.875 8C76.8333 9.41667 79.6667 11.3125 82.375 13.6875C85.0833 16.0625 87.3542 18.8125 89.1875 21.9375C91.0208 25.0625 92.4792 28.8333 93.5625 33.25C94.6458 37.625 95.1875 42.4792 95.1875 47.8125C94.8542 52.9375 93.9583 57.6458 92.5 61.9375C91.0833 66.2292 89.25 69.9375 87 73.0625C84.7917 76.1875 82.1667 78.9792 79.125 81.4375C76.0833 83.8958 72.8958 85.8958 69.5625 87.4375C66.2708 88.9792 62.6875 90.25 58.8125 91.25C54.9792 92.25 51.2292 92.9583 47.5625 93.375C43.9375 93.7917 40.1875 94 36.3125 94C20.6875 94 8.83333 94.125 0.75 94.375C0.583333 93.875 0.5 93.4583 0.5 93.125C0.5 92.8333 0.583333 92.2708 0.75 91.4375C2 91.3125 3 91.2083 3.75 91.125C4.5 91.0417 5.52083 90.8958 6.8125 90.6875C8.14583 90.4792 9.20833 90.25 10 90C10.8333 89.7083 11.6875 89.3542 12.5625 88.9375C13.4375 88.5208 14.0833 88.0208 14.5 87.4375C14.9583 86.8542 15.1875 86.1875 15.1875 85.4375C15.6875 72.3958 15.9375 59.25 15.9375 46C15.9375 32.5 15.7292 20.8542 15.3125 11.0625C15.2708 9.97917 14.7917 9.0625 13.875 8.3125C12.9583 7.52083 11.625 6.91667 9.875 6.5C8.16667 6.08333 6.70833 5.79167 5.5 5.625C4.33333 5.41667 2.79167 5.22917 0.875 5.0625C0.708333 4.3125 0.625 3.79167 0.625 3.5C0.625 3.25 0.708333 2.79167 0.875 2.125ZM29.9375 11.0625C29.3958 25.2292 29.125 38.4167 29.125 50.625C29.125 57.375 29.3542 70.2917 29.8125 89.375C31.6042 89.4583 34.1667 89.5 37.5 89.5C44.25 89.5 50.25 88.4792 55.5 86.4375C60.75 84.3542 65.0625 81.4583 68.4375 77.75C71.8125 74.0417 74.3542 69.6667 76.0625 64.625C77.8125 59.5417 78.6875 53.9375 78.6875 47.8125C78.6875 44.6458 78.4375 41.5417 77.9375 38.5C77.4375 35.4583 76.6458 32.3542 75.5625 29.1875C74.4792 26.0208 72.9792 23.1042 71.0625 20.4375C69.1458 17.7708 66.8542 15.3958 64.1875 13.3125C61.5625 11.1875 58.3125 9.54167 54.4375 8.375C50.6042 7.16667 46.3542 6.5625 41.6875 6.5625C37.3958 6.5625 33.4792 6.83333 29.9375 7.375V11.0625ZM108.375 2.125C117.708 2.45833 125 2.625 130.25 2.625C166 2.41667 185.792 2.25 189.625 2.125C190.167 6.29167 191.229 10.25 192.812 14C194.396 17.7083 196.417 21.6667 198.875 25.875C198.542 26.5833 197.812 27.1458 196.688 27.5625C195.188 24.7292 193.375 22.2083 191.25 20C189.125 17.7917 186.438 15.7083 183.188 13.75C179.979 11.7917 175.958 10.1875 171.125 8.9375C166.333 7.6875 160.854 6.85417 154.688 6.4375H137.438C136.896 24.0625 136.625 37.3333 136.625 46.25H154.438C155.646 46.25 156.771 46.1667 157.812 46C158.896 45.7917 159.896 45.4583 160.812 45C161.729 44.5 162.542 44.0417 163.25 43.625C164 43.1667 164.75 42.5 165.5 41.625C166.25 40.7083 166.875 39.9583 167.375 39.375C167.875 38.75 168.479 37.8125 169.188 36.5625C169.896 35.3125 170.438 34.3333 170.812 33.625C171.188 32.9167 171.75 31.8125 172.5 30.3125C173.292 28.8125 173.896 27.6875 174.312 26.9375C175.604 27.4375 176.396 27.9792 176.688 28.5625C174.938 31.6458 173.458 35.0625 172.25 38.8125C171.042 42.5625 170.438 45.6875 170.438 48.1875C170.438 54.1042 172.521 60.625 176.688 67.75C176.354 68.4167 175.562 68.9792 174.312 69.4375C173.854 68.6042 173.208 67.4167 172.375 65.875C171.583 64.2917 170.958 63.0833 170.5 62.25C170.042 61.4167 169.417 60.3542 168.625 59.0625C167.833 57.7708 167.125 56.7708 166.5 56.0625C165.917 55.3542 165.146 54.5625 164.188 53.6875C163.271 52.8125 162.354 52.1667 161.438 51.75C160.521 51.2917 159.458 50.9167 158.25 50.625C157.083 50.2917 155.812 50.125 154.438 50.125H136.625C136.625 56.75 136.854 70.1042 137.312 90.1875H157.25C163.417 89.7708 168.896 88.9375 173.688 87.6875C178.521 86.4375 182.542 84.8333 185.75 82.875C189 80.9167 191.688 78.8333 193.812 76.625C195.938 74.4167 197.75 71.8958 199.25 69.0625C200.375 69.4792 201.104 70.0208 201.438 70.6875C201.229 71.1042 200.688 72.1042 199.812 73.6875C198.938 75.2708 198.354 76.3542 198.062 76.9375C197.771 77.4792 197.271 78.4583 196.562 79.875C195.896 81.25 195.396 82.375 195.062 83.25C194.729 84.0833 194.333 85.1458 193.875 86.4375C193.458 87.7292 193.104 89 192.812 90.25C192.562 91.4583 192.354 92.7083 192.188 94H137.312C126.021 94 116.333 94.125 108.25 94.375C108.083 93.875 108 93.4583 108 93.125C108 92.8333 108.083 92.2708 108.25 91.4375C110.167 91.2708 111.708 91.1042 112.875 90.9375C114.083 90.7292 115.542 90.4167 117.25 90C119 89.5833 120.333 89 121.25 88.25C122.167 87.4583 122.646 86.5208 122.688 85.4375C123.188 72.3958 123.438 59.25 123.438 46C123.438 32.5 123.229 20.8542 122.812 11.0625C122.771 9.97917 122.292 9.0625 121.375 8.3125C120.458 7.52083 119.125 6.91667 117.375 6.5C115.667 6.08333 114.208 5.79167 113 5.625C111.833 5.41667 110.292 5.22917 108.375 5.0625C108.208 4.3125 108.125 3.79167 108.125 3.5C108.125 3.25 108.208 2.79167 108.375 2.125ZM269 28.5625C267.417 20.9375 264.5 15.0208 260.25 10.8125C256.042 6.60417 250.979 4.5 245.062 4.5C239.271 4.5 234.771 5.875 231.562 8.625C228.396 11.375 226.812 15.0417 226.812 19.625C226.812 22.1667 227.042 24.2708 227.5 25.9375C227.958 27.6042 228.896 29.2292 230.312 30.8125C231.729 32.3542 233.792 33.7292 236.5 34.9375C239.208 36.1042 242.75 37.2292 247.125 38.3125C249.5 38.8958 251.562 39.4375 253.312 39.9375C255.104 40.4375 257.062 41.125 259.188 42C261.354 42.875 263.208 43.8125 264.75 44.8125C266.333 45.8125 267.896 47.0625 269.438 48.5625C271.021 50.0208 272.292 51.6458 273.25 53.4375C274.25 55.2292 275.042 57.3542 275.625 59.8125C276.25 62.2292 276.562 64.875 276.562 67.75C276.562 71.5833 275.854 75.125 274.438 78.375C273.021 81.5833 271.167 84.2917 268.875 86.5C266.583 88.7083 263.938 90.5833 260.938 92.125C257.938 93.6667 254.896 94.7917 251.812 95.5C248.729 96.2083 245.667 96.5625 242.625 96.5625C233.375 96.5625 223.521 94.1667 213.062 89.375C213.271 84.875 213.375 82.1042 213.375 81.0625C213.375 74.2708 212.812 67.5 211.688 60.75C212.146 60.4583 212.604 60.3125 213.062 60.3125C213.646 60.3125 214.167 60.4583 214.625 60.75C215.5 66.125 216.938 70.875 218.938 75C220.979 79.125 223.312 82.3958 225.938 84.8125C228.562 87.1875 231.271 88.9792 234.062 90.1875C236.896 91.3542 239.75 91.9375 242.625 91.9375C249.167 91.9375 254.188 90.25 257.688 86.875C261.229 83.4583 263 78.9583 263 73.375C263 67.75 261.688 63.5208 259.062 60.6875C256.479 57.8125 251.521 55.4792 244.188 53.6875C235.021 51.3958 227.854 48.0208 222.688 43.5625C217.562 39.0625 215 33.125 215 25.75C215 21.875 215.625 18.4167 216.875 15.375C218.167 12.2917 219.812 9.83333 221.812 8C223.854 6.125 226.229 4.58333 228.938 3.375C231.646 2.125 234.312 1.27083 236.938 0.8125C239.604 0.3125 242.312 0.0625 245.062 0.0625C253.312 0.0625 261.896 1.97917 270.812 5.8125C270.562 8.27083 270.438 10.8333 270.438 13.5C270.438 19.75 270.938 24.7708 271.938 28.5625C271.396 28.7708 270.938 28.875 270.562 28.875C270.146 28.875 269.625 28.7708 269 28.5625ZM289.125 2.125C298.458 2.45833 305.708 2.625 310.875 2.625C316.042 2.625 323.292 2.45833 332.625 2.125C332.792 2.79167 332.875 3.25 332.875 3.5C332.875 3.95833 332.792 4.47917 332.625 5.0625C330.708 5.22917 329.146 5.41667 327.938 5.625C326.771 5.79167 325.312 6.08333 323.562 6.5C321.854 6.91667 320.542 7.52083 319.625 8.3125C318.708 9.0625 318.229 9.97917 318.188 11.0625C317.646 25.2292 317.375 38.4167 317.375 50.625C317.375 59.5417 317.604 71.1458 318.062 85.4375C318.104 86.5208 318.583 87.4583 319.5 88.25C320.417 89 321.729 89.5833 323.438 90C325.188 90.4167 326.646 90.7292 327.812 90.9375C329.021 91.1042 330.583 91.2708 332.5 91.4375C332.667 91.9375 332.75 92.5 332.75 93.125C332.75 93.4583 332.667 93.875 332.5 94.375C325.417 94.125 318.167 94 310.75 94C303.25 94 296 94.125 289 94.375C288.833 93.875 288.75 93.4583 288.75 93.125C288.75 92.4167 288.833 91.8542 289 91.4375C290.25 91.3125 291.25 91.2083 292 91.125C292.75 91.0417 293.771 90.8958 295.062 90.6875C296.396 90.4792 297.458 90.25 298.25 90C299.083 89.7083 299.938 89.3542 300.812 88.9375C301.688 88.5208 302.333 88.0208 302.75 87.4375C303.208 86.8542 303.438 86.1875 303.438 85.4375C303.938 72.3958 304.188 59.25 304.188 46C304.188 32.5 303.979 20.8542 303.562 11.0625C303.521 9.97917 303.042 9.0625 302.125 8.3125C301.208 7.52083 299.875 6.91667 298.125 6.5C296.417 6.08333 294.958 5.79167 293.75 5.625C292.583 5.41667 291.042 5.22917 289.125 5.0625C288.958 4.3125 288.875 3.79167 288.875 3.5C288.875 3.08333 288.958 2.625 289.125 2.125ZM429.688 30.5C428.354 27.5417 427.042 24.9583 425.75 22.75C424.458 20.5 422.771 18.1667 420.688 15.75C418.604 13.3333 416.375 11.3542 414 9.8125C411.625 8.27083 408.708 7 405.25 6C401.792 5 397.979 4.5 393.812 4.5C389.312 4.5 385.229 5.41667 381.562 7.25C377.896 9.08333 374.875 11.4792 372.5 14.4375C370.167 17.3958 368.188 20.8333 366.562 24.75C364.979 28.625 363.854 32.5417 363.188 36.5C362.521 40.4167 362.188 44.3958 362.188 48.4375C362.188 52.4375 362.542 56.4167 363.25 60.375C363.958 64.2917 365.125 68.1875 366.75 72.0625C368.417 75.9375 370.458 79.3333 372.875 82.25C375.292 85.1667 378.333 87.5417 382 89.375C385.708 91.1667 389.812 92.0625 394.312 92.0625C403.479 92.0625 409.854 90.0208 413.438 85.9375V60.5625C413.438 59.6875 413.083 58.9167 412.375 58.25C411.667 57.5417 410.854 57 409.938 56.625C409.021 56.25 407.792 55.9167 406.25 55.625C404.75 55.2917 403.521 55.0625 402.562 54.9375C401.604 54.8125 400.396 54.6875 398.938 54.5625C398.771 53.8958 398.688 53.3958 398.688 53.0625C398.688 52.7708 398.771 52.2917 398.938 51.625C408.354 51.9583 415.604 52.125 420.688 52.125C425.854 52.125 433.104 51.9583 442.438 51.625C442.646 52.4583 442.75 52.9375 442.75 53.0625C442.75 53.2292 442.646 53.7292 442.438 54.5625C440.979 54.6875 439.771 54.8125 438.812 54.9375C437.854 55.0625 436.604 55.2917 435.062 55.625C433.562 55.9167 432.354 56.25 431.438 56.625C430.562 57 429.771 57.5417 429.062 58.25C428.354 58.9167 428 59.6875 428 60.5625V69.8125C428 77.7292 428.938 84.2083 430.812 89.25C423.938 91.7917 417.833 93.6458 412.5 94.8125C407.167 95.9792 401.104 96.5625 394.312 96.5625C390.271 96.5625 386.208 96.1458 382.125 95.3125C378.042 94.4792 373.75 92.9167 369.25 90.625C364.792 88.3333 360.854 85.4583 357.438 82C354.062 78.5417 351.25 73.9167 349 68.125C346.792 62.3333 345.688 55.7708 345.688 48.4375C345.688 43.1458 346.25 38.25 347.375 33.75C348.542 29.2083 350.083 25.3125 352 22.0625C353.917 18.8125 356.188 15.8958 358.812 13.3125C361.479 10.7292 364.25 8.625 367.125 7C370 5.375 373.021 4.04167 376.188 3C379.396 1.91667 382.438 1.16667 385.312 0.75C388.188 0.291667 391.021 0.0625 393.812 0.0625C398.479 0.0625 402.917 0.354167 407.125 0.9375C411.375 1.47917 415.604 2.16667 419.812 3C424.021 3.79167 427.354 4.33333 429.812 4.625C429.188 6.5 428.875 9.14583 428.875 12.5625C428.875 18.2292 429.896 23.75 431.938 29.125C431.688 29.875 430.938 30.3333 429.688 30.5ZM450.875 2.125C457.708 2.45833 466.333 2.625 476.75 2.625C506.208 39.5417 522.042 59.2083 524.25 61.625C526.458 64 527.562 65.1875 527.562 65.1875H528.062C528.229 57.1875 528.312 50.75 528.312 45.875C528.312 36.25 528.104 24.9375 527.688 11.9375C527.604 8.1875 522.979 5.89583 513.812 5.0625C513.646 4.14583 513.562 3.58333 513.562 3.375C513.562 3.04167 513.646 2.625 513.812 2.125C520.521 2.375 526.458 2.5 531.625 2.5C534.958 2.5 540.542 2.375 548.375 2.125C548.542 2.625 548.625 3.04167 548.625 3.375C548.625 4.04167 548.542 4.60417 548.375 5.0625C539.25 5.89583 534.646 8.1875 534.562 11.9375C534.062 24.9792 533.812 37.8333 533.812 50.5C533.812 69.875 534.021 84.4583 534.438 94.25L533.312 94.375L471.188 17.9375H470.562C470.312 28.7292 470.188 39.625 470.188 50.625C470.188 60.2917 470.396 71.5833 470.812 84.5C470.896 88.2917 475.5 90.6042 484.625 91.4375C484.833 92.1458 484.938 92.7083 484.938 93.125C484.938 93.5417 484.833 93.9583 484.625 94.375C478 94.125 472.083 94 466.875 94C463.542 94 457.958 94.125 450.125 94.375C449.917 93.9583 449.812 93.5417 449.812 93.125C449.812 92.4167 449.917 91.8542 450.125 91.4375C459.333 90.5625 463.938 88.25 463.938 84.5C464.438 71.5 464.688 58.6667 464.688 46C464.688 32.25 464.521 20.3125 464.188 10.1875C460.688 7.14583 456.25 5.4375 450.875 5.0625C450.625 4.52083 450.5 4.04167 450.5 3.625C450.5 3 450.625 2.5 450.875 2.125Z"/>
</mask>
<path d="M0.875 2.125C10.2083 2.45833 17.6667 2.625 23.25 2.625C33.6667 2.29167 40.0625 2.125 42.4375 2.125C46.3125 2.125 49.9583 2.29167 53.375 2.625C56.7917 2.95833 60.3125 3.58333 63.9375 4.5C67.6042 5.375 70.9167 6.54167 73.875 8C76.8333 9.41667 79.6667 11.3125 82.375 13.6875C85.0833 16.0625 87.3542 18.8125 89.1875 21.9375C91.0208 25.0625 92.4792 28.8333 93.5625 33.25C94.6458 37.625 95.1875 42.4792 95.1875 47.8125C94.8542 52.9375 93.9583 57.6458 92.5 61.9375C91.0833 66.2292 89.25 69.9375 87 73.0625C84.7917 76.1875 82.1667 78.9792 79.125 81.4375C76.0833 83.8958 72.8958 85.8958 69.5625 87.4375C66.2708 88.9792 62.6875 90.25 58.8125 91.25C54.9792 92.25 51.2292 92.9583 47.5625 93.375C43.9375 93.7917 40.1875 94 36.3125 94C20.6875 94 8.83333 94.125 0.75 94.375C0.583333 93.875 0.5 93.4583 0.5 93.125C0.5 92.8333 0.583333 92.2708 0.75 91.4375C2 91.3125 3 91.2083 3.75 91.125C4.5 91.0417 5.52083 90.8958 6.8125 90.6875C8.14583 90.4792 9.20833 90.25 10 90C10.8333 89.7083 11.6875 89.3542 12.5625 88.9375C13.4375 88.5208 14.0833 88.0208 14.5 87.4375C14.9583 86.8542 15.1875 86.1875 15.1875 85.4375C15.6875 72.3958 15.9375 59.25 15.9375 46C15.9375 32.5 15.7292 20.8542 15.3125 11.0625C15.2708 9.97917 14.7917 9.0625 13.875 8.3125C12.9583 7.52083 11.625 6.91667 9.875 6.5C8.16667 6.08333 6.70833 5.79167 5.5 5.625C4.33333 5.41667 2.79167 5.22917 0.875 5.0625C0.708333 4.3125 0.625 3.79167 0.625 3.5C0.625 3.25 0.708333 2.79167 0.875 2.125ZM29.9375 11.0625C29.3958 25.2292 29.125 38.4167 29.125 50.625C29.125 57.375 29.3542 70.2917 29.8125 89.375C31.6042 89.4583 34.1667 89.5 37.5 89.5C44.25 89.5 50.25 88.4792 55.5 86.4375C60.75 84.3542 65.0625 81.4583 68.4375 77.75C71.8125 74.0417 74.3542 69.6667 76.0625 64.625C77.8125 59.5417 78.6875 53.9375 78.6875 47.8125C78.6875 44.6458 78.4375 41.5417 77.9375 38.5C77.4375 35.4583 76.6458 32.3542 75.5625 29.1875C74.4792 26.0208 72.9792 23.1042 71.0625 20.4375C69.1458 17.7708 66.8542 15.3958 64.1875 13.3125C61.5625 11.1875 58.3125 9.54167 54.4375 8.375C50.6042 7.16667 46.3542 6.5625 41.6875 6.5625C37.3958 6.5625 33.4792 6.83333 29.9375 7.375V11.0625ZM108.375 2.125C117.708 2.45833 125 2.625 130.25 2.625C166 2.41667 185.792 2.25 189.625 2.125C190.167 6.29167 191.229 10.25 192.812 14C194.396 17.7083 196.417 21.6667 198.875 25.875C198.542 26.5833 197.812 27.1458 196.688 27.5625C195.188 24.7292 193.375 22.2083 191.25 20C189.125 17.7917 186.438 15.7083 183.188 13.75C179.979 11.7917 175.958 10.1875 171.125 8.9375C166.333 7.6875 160.854 6.85417 154.688 6.4375H137.438C136.896 24.0625 136.625 37.3333 136.625 46.25H154.438C155.646 46.25 156.771 46.1667 157.812 46C158.896 45.7917 159.896 45.4583 160.812 45C161.729 44.5 162.542 44.0417 163.25 43.625C164 43.1667 164.75 42.5 165.5 41.625C166.25 40.7083 166.875 39.9583 167.375 39.375C167.875 38.75 168.479 37.8125 169.188 36.5625C169.896 35.3125 170.438 34.3333 170.812 33.625C171.188 32.9167 171.75 31.8125 172.5 30.3125C173.292 28.8125 173.896 27.6875 174.312 26.9375C175.604 27.4375 176.396 27.9792 176.688 28.5625C174.938 31.6458 173.458 35.0625 172.25 38.8125C171.042 42.5625 170.438 45.6875 170.438 48.1875C170.438 54.1042 172.521 60.625 176.688 67.75C176.354 68.4167 175.562 68.9792 174.312 69.4375C173.854 68.6042 173.208 67.4167 172.375 65.875C171.583 64.2917 170.958 63.0833 170.5 62.25C170.042 61.4167 169.417 60.3542 168.625 59.0625C167.833 57.7708 167.125 56.7708 166.5 56.0625C165.917 55.3542 165.146 54.5625 164.188 53.6875C163.271 52.8125 162.354 52.1667 161.438 51.75C160.521 51.2917 159.458 50.9167 158.25 50.625C157.083 50.2917 155.812 50.125 154.438 50.125H136.625C136.625 56.75 136.854 70.1042 137.312 90.1875H157.25C163.417 89.7708 168.896 88.9375 173.688 87.6875C178.521 86.4375 182.542 84.8333 185.75 82.875C189 80.9167 191.688 78.8333 193.812 76.625C195.938 74.4167 197.75 71.8958 199.25 69.0625C200.375 69.4792 201.104 70.0208 201.438 70.6875C201.229 71.1042 200.688 72.1042 199.812 73.6875C198.938 75.2708 198.354 76.3542 198.062 76.9375C197.771 77.4792 197.271 78.4583 196.562 79.875C195.896 81.25 195.396 82.375 195.062 83.25C194.729 84.0833 194.333 85.1458 193.875 86.4375C193.458 87.7292 193.104 89 192.812 90.25C192.562 91.4583 192.354 92.7083 192.188 94H137.312C126.021 94 116.333 94.125 108.25 94.375C108.083 93.875 108 93.4583 108 93.125C108 92.8333 108.083 92.2708 108.25 91.4375C110.167 91.2708 111.708 91.1042 112.875 90.9375C114.083 90.7292 115.542 90.4167 117.25 90C119 89.5833 120.333 89 121.25 88.25C122.167 87.4583 122.646 86.5208 122.688 85.4375C123.188 72.3958 123.438 59.25 123.438 46C123.438 32.5 123.229 20.8542 122.812 11.0625C122.771 9.97917 122.292 9.0625 121.375 8.3125C120.458 7.52083 119.125 6.91667 117.375 6.5C115.667 6.08333 114.208 5.79167 113 5.625C111.833 5.41667 110.292 5.22917 108.375 5.0625C108.208 4.3125 108.125 3.79167 108.125 3.5C108.125 3.25 108.208 2.79167 108.375 2.125ZM269 28.5625C267.417 20.9375 264.5 15.0208 260.25 10.8125C256.042 6.60417 250.979 4.5 245.062 4.5C239.271 4.5 234.771 5.875 231.562 8.625C228.396 11.375 226.812 15.0417 226.812 19.625C226.812 22.1667 227.042 24.2708 227.5 25.9375C227.958 27.6042 228.896 29.2292 230.312 30.8125C231.729 32.3542 233.792 33.7292 236.5 34.9375C239.208 36.1042 242.75 37.2292 247.125 38.3125C249.5 38.8958 251.562 39.4375 253.312 39.9375C255.104 40.4375 257.062 41.125 259.188 42C261.354 42.875 263.208 43.8125 264.75 44.8125C266.333 45.8125 267.896 47.0625 269.438 48.5625C271.021 50.0208 272.292 51.6458 273.25 53.4375C274.25 55.2292 275.042 57.3542 275.625 59.8125C276.25 62.2292 276.562 64.875 276.562 67.75C276.562 71.5833 275.854 75.125 274.438 78.375C273.021 81.5833 271.167 84.2917 268.875 86.5C266.583 88.7083 263.938 90.5833 260.938 92.125C257.938 93.6667 254.896 94.7917 251.812 95.5C248.729 96.2083 245.667 96.5625 242.625 96.5625C233.375 96.5625 223.521 94.1667 213.062 89.375C213.271 84.875 213.375 82.1042 213.375 81.0625C213.375 74.2708 212.812 67.5 211.688 60.75C212.146 60.4583 212.604 60.3125 213.062 60.3125C213.646 60.3125 214.167 60.4583 214.625 60.75C215.5 66.125 216.938 70.875 218.938 75C220.979 79.125 223.312 82.3958 225.938 84.8125C228.562 87.1875 231.271 88.9792 234.062 90.1875C236.896 91.3542 239.75 91.9375 242.625 91.9375C249.167 91.9375 254.188 90.25 257.688 86.875C261.229 83.4583 263 78.9583 263 73.375C263 67.75 261.688 63.5208 259.062 60.6875C256.479 57.8125 251.521 55.4792 244.188 53.6875C235.021 51.3958 227.854 48.0208 222.688 43.5625C217.562 39.0625 215 33.125 215 25.75C215 21.875 215.625 18.4167 216.875 15.375C218.167 12.2917 219.812 9.83333 221.812 8C223.854 6.125 226.229 4.58333 228.938 3.375C231.646 2.125 234.312 1.27083 236.938 0.8125C239.604 0.3125 242.312 0.0625 245.062 0.0625C253.312 0.0625 261.896 1.97917 270.812 5.8125C270.562 8.27083 270.438 10.8333 270.438 13.5C270.438 19.75 270.938 24.7708 271.938 28.5625C271.396 28.7708 270.938 28.875 270.562 28.875C270.146 28.875 269.625 28.7708 269 28.5625ZM289.125 2.125C298.458 2.45833 305.708 2.625 310.875 2.625C316.042 2.625 323.292 2.45833 332.625 2.125C332.792 2.79167 332.875 3.25 332.875 3.5C332.875 3.95833 332.792 4.47917 332.625 5.0625C330.708 5.22917 329.146 5.41667 327.938 5.625C326.771 5.79167 325.312 6.08333 323.562 6.5C321.854 6.91667 320.542 7.52083 319.625 8.3125C318.708 9.0625 318.229 9.97917 318.188 11.0625C317.646 25.2292 317.375 38.4167 317.375 50.625C317.375 59.5417 317.604 71.1458 318.062 85.4375C318.104 86.5208 318.583 87.4583 319.5 88.25C320.417 89 321.729 89.5833 323.438 90C325.188 90.4167 326.646 90.7292 327.812 90.9375C329.021 91.1042 330.583 91.2708 332.5 91.4375C332.667 91.9375 332.75 92.5 332.75 93.125C332.75 93.4583 332.667 93.875 332.5 94.375C325.417 94.125 318.167 94 310.75 94C303.25 94 296 94.125 289 94.375C288.833 93.875 288.75 93.4583 288.75 93.125C288.75 92.4167 288.833 91.8542 289 91.4375C290.25 91.3125 291.25 91.2083 292 91.125C292.75 91.0417 293.771 90.8958 295.062 90.6875C296.396 90.4792 297.458 90.25 298.25 90C299.083 89.7083 299.938 89.3542 300.812 88.9375C301.688 88.5208 302.333 88.0208 302.75 87.4375C303.208 86.8542 303.438 86.1875 303.438 85.4375C303.938 72.3958 304.188 59.25 304.188 46C304.188 32.5 303.979 20.8542 303.562 11.0625C303.521 9.97917 303.042 9.0625 302.125 8.3125C301.208 7.52083 299.875 6.91667 298.125 6.5C296.417 6.08333 294.958 5.79167 293.75 5.625C292.583 5.41667 291.042 5.22917 289.125 5.0625C288.958 4.3125 288.875 3.79167 288.875 3.5C288.875 3.08333 288.958 2.625 289.125 2.125ZM429.688 30.5C428.354 27.5417 427.042 24.9583 425.75 22.75C424.458 20.5 422.771 18.1667 420.688 15.75C418.604 13.3333 416.375 11.3542 414 9.8125C411.625 8.27083 408.708 7 405.25 6C401.792 5 397.979 4.5 393.812 4.5C389.312 4.5 385.229 5.41667 381.562 7.25C377.896 9.08333 374.875 11.4792 372.5 14.4375C370.167 17.3958 368.188 20.8333 366.562 24.75C364.979 28.625 363.854 32.5417 363.188 36.5C362.521 40.4167 362.188 44.3958 362.188 48.4375C362.188 52.4375 362.542 56.4167 363.25 60.375C363.958 64.2917 365.125 68.1875 366.75 72.0625C368.417 75.9375 370.458 79.3333 372.875 82.25C375.292 85.1667 378.333 87.5417 382 89.375C385.708 91.1667 389.812 92.0625 394.312 92.0625C403.479 92.0625 409.854 90.0208 413.438 85.9375V60.5625C413.438 59.6875 413.083 58.9167 412.375 58.25C411.667 57.5417 410.854 57 409.938 56.625C409.021 56.25 407.792 55.9167 406.25 55.625C404.75 55.2917 403.521 55.0625 402.562 54.9375C401.604 54.8125 400.396 54.6875 398.938 54.5625C398.771 53.8958 398.688 53.3958 398.688 53.0625C398.688 52.7708 398.771 52.2917 398.938 51.625C408.354 51.9583 415.604 52.125 420.688 52.125C425.854 52.125 433.104 51.9583 442.438 51.625C442.646 52.4583 442.75 52.9375 442.75 53.0625C442.75 53.2292 442.646 53.7292 442.438 54.5625C440.979 54.6875 439.771 54.8125 438.812 54.9375C437.854 55.0625 436.604 55.2917 435.062 55.625C433.562 55.9167 432.354 56.25 431.438 56.625C430.562 57 429.771 57.5417 429.062 58.25C428.354 58.9167 428 59.6875 428 60.5625V69.8125C428 77.7292 428.938 84.2083 430.812 89.25C423.938 91.7917 417.833 93.6458 412.5 94.8125C407.167 95.9792 401.104 96.5625 394.312 96.5625C390.271 96.5625 386.208 96.1458 382.125 95.3125C378.042 94.4792 373.75 92.9167 369.25 90.625C364.792 88.3333 360.854 85.4583 357.438 82C354.062 78.5417 351.25 73.9167 349 68.125C346.792 62.3333 345.688 55.7708 345.688 48.4375C345.688 43.1458 346.25 38.25 347.375 33.75C348.542 29.2083 350.083 25.3125 352 22.0625C353.917 18.8125 356.188 15.8958 358.812 13.3125C361.479 10.7292 364.25 8.625 367.125 7C370 5.375 373.021 4.04167 376.188 3C379.396 1.91667 382.438 1.16667 385.312 0.75C388.188 0.291667 391.021 0.0625 393.812 0.0625C398.479 0.0625 402.917 0.354167 407.125 0.9375C411.375 1.47917 415.604 2.16667 419.812 3C424.021 3.79167 427.354 4.33333 429.812 4.625C429.188 6.5 428.875 9.14583 428.875 12.5625C428.875 18.2292 429.896 23.75 431.938 29.125C431.688 29.875 430.938 30.3333 429.688 30.5ZM450.875 2.125C457.708 2.45833 466.333 2.625 476.75 2.625C506.208 39.5417 522.042 59.2083 524.25 61.625C526.458 64 527.562 65.1875 527.562 65.1875H528.062C528.229 57.1875 528.312 50.75 528.312 45.875C528.312 36.25 528.104 24.9375 527.688 11.9375C527.604 8.1875 522.979 5.89583 513.812 5.0625C513.646 4.14583 513.562 3.58333 513.562 3.375C513.562 3.04167 513.646 2.625 513.812 2.125C520.521 2.375 526.458 2.5 531.625 2.5C534.958 2.5 540.542 2.375 548.375 2.125C548.542 2.625 548.625 3.04167 548.625 3.375C548.625 4.04167 548.542 4.60417 548.375 5.0625C539.25 5.89583 534.646 8.1875 534.562 11.9375C534.062 24.9792 533.812 37.8333 533.812 50.5C533.812 69.875 534.021 84.4583 534.438 94.25L533.312 94.375L471.188 17.9375H470.562C470.312 28.7292 470.188 39.625 470.188 50.625C470.188 60.2917 470.396 71.5833 470.812 84.5C470.896 88.2917 475.5 90.6042 484.625 91.4375C484.833 92.1458 484.938 92.7083 484.938 93.125C484.938 93.5417 484.833 93.9583 484.625 94.375C478 94.125 472.083 94 466.875 94C463.542 94 457.958 94.125 450.125 94.375C449.917 93.9583 449.812 93.5417 449.812 93.125C449.812 92.4167 449.917 91.8542 450.125 91.4375C459.333 90.5625 463.938 88.25 463.938 84.5C464.438 71.5 464.688 58.6667 464.688 46C464.688 32.25 464.521 20.3125 464.188 10.1875C460.688 7.14583 456.25 5.4375 450.875 5.0625C450.625 4.52083 450.5 4.04167 450.5 3.625C450.5 3 450.625 2.5 450.875 2.125Z" fill="black"/>
<path d="M0.875 2.125L1.01777 -1.87245L-2.21984 -1.98808L-3.00557 1.15486L0.875 2.125ZM23.25 2.625V6.625H23.314L23.3779 6.62295L23.25 2.625ZM63.9375 4.5L62.9569 8.37793L62.9829 8.38452L63.009 8.39075L63.9375 4.5ZM73.875 8L72.1064 11.5878L72.1268 11.5978L72.1474 11.6077L73.875 8ZM93.5625 33.25L89.6776 34.2029L89.6798 34.2114L93.5625 33.25ZM95.1875 47.8125L99.1791 48.0721L99.1875 47.9424V47.8125H95.1875ZM92.5 61.9375L88.7127 60.6505L88.7071 60.6671L88.7016 60.6837L92.5 61.9375ZM87 73.0625L83.7539 70.7253L83.7435 70.7396L83.7333 70.7541L87 73.0625ZM69.5625 87.4375L67.8834 83.807L67.8747 83.811L67.8659 83.8151L69.5625 87.4375ZM58.8125 91.25L57.813 87.3769L57.8028 87.3795L58.8125 91.25ZM47.5625 93.375L47.1109 89.4006L47.1057 89.4012L47.5625 93.375ZM0.75 94.375L-3.04473 95.6399L-2.10299 98.4651L0.873652 98.3731L0.75 94.375ZM0.75 91.4375L0.351985 87.4574L-2.59207 87.7518L-3.17232 90.653L0.75 91.4375ZM6.8125 90.6875L6.19499 86.7355L6.18528 86.737L6.17557 86.7385L6.8125 90.6875ZM10 90L11.2045 93.8143L11.2633 93.7958L11.3214 93.7754L10 90ZM14.5 87.4375L11.3547 84.9662L11.2982 85.0381L11.2451 85.1125L14.5 87.4375ZM15.1875 85.4375L11.1904 85.2843L11.1875 85.3609V85.4375H15.1875ZM15.3125 11.0625L11.3155 11.2162L11.3158 11.2244L11.3161 11.2326L15.3125 11.0625ZM13.875 8.3125L11.2605 11.3398L11.3008 11.3746L11.342 11.4083L13.875 8.3125ZM9.875 6.5L8.92718 10.3861L8.93784 10.3887L8.94852 10.3912L9.875 6.5ZM5.5 5.625L4.79684 9.56271L4.8749 9.57665L4.95345 9.58748L5.5 5.625ZM0.875 5.0625L-3.02975 5.93022L-2.39349 8.79338L0.528482 9.04746L0.875 5.0625ZM29.9375 11.0625L33.9346 11.2153L33.9375 11.1389V11.0625H29.9375ZM29.8125 89.375L25.8137 89.471L25.9032 93.1975L29.6267 93.3707L29.8125 89.375ZM55.5 86.4375L56.9498 90.1655L56.9626 90.1605L56.9754 90.1555L55.5 86.4375ZM68.4375 77.75L65.4792 75.0577L68.4375 77.75ZM76.0625 64.625L72.2803 63.3229L72.2772 63.3321L72.2741 63.3413L76.0625 64.625ZM75.5625 29.1875L71.7778 30.4823L75.5625 29.1875ZM64.1875 13.3125L61.6707 16.4215L61.6976 16.4433L61.7249 16.4646L64.1875 13.3125ZM54.4375 8.375L53.235 12.19L53.2596 12.1977L53.2843 12.2052L54.4375 8.375ZM29.9375 7.375L29.3328 3.42098L25.9375 3.94025V7.375H29.9375ZM0.732234 6.12245C10.0862 6.45652 17.5981 6.625 23.25 6.625V-1.375C17.7352 -1.375 10.3305 -1.53985 1.01777 -1.87245L0.732234 6.12245ZM23.3779 6.62295C33.8225 6.28873 40.1419 6.125 42.4375 6.125V-1.875C39.9831 -1.875 33.5109 -1.7054 23.1221 -1.37295L23.3779 6.62295ZM42.4375 6.125C46.199 6.125 49.7142 6.28684 52.9866 6.6061L53.7634 -1.3561C50.2025 -1.70351 46.426 -1.875 42.4375 -1.875V6.125ZM52.9866 6.6061C56.1868 6.91831 59.5094 7.50615 62.9569 8.37793L64.9181 0.622066C61.1156 -0.339486 57.3965 -1.00165 53.7634 -1.3561L52.9866 6.6061ZM63.009 8.39075C66.4256 9.20608 69.4508 10.2787 72.1064 11.5878L75.6436 4.41224C72.3826 2.80468 68.7827 1.54392 64.866 0.60925L63.009 8.39075ZM72.1474 11.6077C74.746 12.8521 77.2771 14.5372 79.7377 16.6949L85.0123 10.6801C82.0562 8.0878 78.9207 5.98125 75.6026 4.39232L72.1474 11.6077ZM79.7377 16.6949C82.1223 18.7861 84.1194 21.2035 85.7374 23.9616L92.6376 19.9134C90.589 16.4215 88.0443 13.3389 85.0123 10.6801L79.7377 16.6949ZM85.7374 23.9616C87.3322 26.68 88.6642 30.0711 89.6777 34.2029L97.4473 32.2971C96.2941 27.5956 94.7095 23.445 92.6376 19.9134L85.7374 23.9616ZM89.6798 34.2114C90.6725 38.2207 91.1875 42.7459 91.1875 47.8125H99.1875C99.1875 42.2124 98.6191 37.0293 97.4452 32.2886L89.6798 34.2114ZM91.1959 47.5529C90.8824 52.3736 90.0444 56.7315 88.7127 60.6505L96.2873 63.2245C97.8723 58.5601 98.8259 53.5014 99.1791 48.0721L91.1959 47.5529ZM88.7016 60.6837C87.3911 64.6536 85.7284 67.9828 83.7539 70.7253L90.2461 75.3997C92.7716 71.8922 94.7755 67.8047 96.2984 63.1913L88.7016 60.6837ZM83.7333 70.7541C81.7423 73.5716 79.3722 76.0946 76.6107 78.3265L81.6393 84.5485C84.9612 81.8637 87.841 78.8034 90.2667 75.3709L83.7333 70.7541ZM76.6107 78.3265C73.8084 80.5913 70.8993 82.4121 67.8834 83.807L71.2416 91.068C74.8924 89.3795 78.3582 87.2003 81.6393 84.5485L76.6107 78.3265ZM67.8659 83.8151C64.8195 85.2419 61.4721 86.4326 57.813 87.3769L59.812 95.1231C63.9029 94.0674 67.7221 92.7164 71.2591 91.0599L67.8659 83.8151ZM57.8028 87.3795C54.1395 88.3352 50.5761 89.0068 47.1109 89.4006L48.0141 97.3494C51.8822 96.9099 55.8188 96.1648 59.8222 95.1205L57.8028 87.3795ZM47.1057 89.4012C43.6414 89.7994 40.0442 90 36.3125 90V98C40.3308 98 44.2336 97.784 48.0193 97.3488L47.1057 89.4012ZM36.3125 90C20.6767 90 8.77292 90.125 0.626348 90.3769L0.873652 98.3731C8.89374 98.125 20.6983 98 36.3125 98V90ZM4.54473 93.1101C4.52398 93.0478 4.50949 92.9991 4.49968 92.9632C4.48982 92.927 4.4857 92.9074 4.48482 92.903C4.4839 92.8984 4.48733 92.9144 4.49116 92.9489C4.49496 92.9831 4.5 93.043 4.5 93.125H-3.5C-3.5 94.0633 -3.27795 94.9403 -3.04473 95.6399L4.54473 93.1101ZM4.5 93.125C4.5 93.2266 4.49363 93.2756 4.49672 93.2439C4.49901 93.2204 4.5053 93.1652 4.51931 93.0706C4.54763 92.8794 4.59641 92.6015 4.67232 92.222L-3.17232 90.653C-3.3274 91.4284 -3.5 92.3741 -3.5 93.125H4.5ZM1.14801 95.4176C2.40441 95.292 3.42081 95.1862 4.19173 95.1005L3.30827 87.1495C2.57919 87.2305 1.59559 87.333 0.351985 87.4574L1.14801 95.4176ZM4.19173 95.1005C5.03736 95.0066 6.13242 94.8489 7.44943 94.6365L6.17557 86.7385C4.90925 86.9428 3.96264 87.0768 3.30827 87.1495L4.19173 95.1005ZM7.43001 94.6395C8.85572 94.4168 10.14 94.1505 11.2045 93.8143L8.79547 86.1857C8.27663 86.3495 7.43595 86.5416 6.19499 86.7355L7.43001 94.6395ZM11.3214 93.7754C12.3027 93.432 13.2899 93.0215 14.2822 92.5489L10.8428 85.3261C10.0851 85.6868 9.36394 85.9847 8.6786 86.2246L11.3214 93.7754ZM14.2822 92.5489C15.5631 91.939 16.8294 91.0582 17.7549 89.7625L11.2451 85.1125C11.3373 84.9834 11.3119 85.1027 10.8428 85.3261L14.2822 92.5489ZM17.6453 89.9088C18.6639 88.6124 19.1875 87.0731 19.1875 85.4375H11.1875C11.1875 85.3984 11.1947 85.3108 11.2329 85.1997C11.2713 85.088 11.322 85.0079 11.3547 84.9662L17.6453 89.9088ZM19.1846 85.5907C19.6866 72.4972 19.9375 59.3003 19.9375 46H11.9375C11.9375 59.1997 11.6884 72.2944 11.1904 85.2843L19.1846 85.5907ZM19.9375 46C19.9375 32.4627 19.7287 20.7573 19.3089 10.8924L11.3161 11.2326C11.7297 20.951 11.9375 32.5373 11.9375 46H19.9375ZM19.3095 10.9088C19.2195 8.56649 18.1194 6.61699 16.408 5.21667L11.342 11.4083C11.3682 11.4297 11.3862 11.4463 11.3976 11.4575C11.4089 11.4686 11.4138 11.4744 11.4139 11.4745C11.4139 11.4745 11.4096 11.4694 11.4026 11.459C11.3956 11.4485 11.3866 11.434 11.377 11.4155C11.3566 11.3765 11.3396 11.3327 11.3283 11.2893C11.3172 11.2466 11.3156 11.2198 11.3155 11.2162L19.3095 10.9088ZM16.4895 5.28521C14.9091 3.92035 12.8964 3.10755 10.8015 2.60878L8.94852 10.3912C10.3536 10.7258 11.0075 11.1213 11.2605 11.3398L16.4895 5.28521ZM10.8228 2.61392C9.03443 2.17773 7.43435 1.85394 6.04655 1.66252L4.95345 9.58748C5.98232 9.7294 7.2989 9.98894 8.92718 10.3861L10.8228 2.61392ZM6.20316 1.68729C4.86885 1.44902 3.19407 1.24906 1.22152 1.07754L0.528482 9.04746C2.38927 9.20927 3.79782 9.38431 4.79684 9.56271L6.20316 1.68729ZM4.77975 4.19478C4.70672 3.86614 4.66202 3.63215 4.63726 3.47741C4.6251 3.4014 4.62066 3.36244 4.61975 3.3536C4.61821 3.33856 4.625 3.39487 4.625 3.5H-3.375C-3.375 4.2886 -3.18945 5.21156 -3.02975 5.93022L4.77975 4.19478ZM4.625 3.5C4.625 3.64389 4.61406 3.73369 4.61323 3.7408C4.61144 3.75598 4.61287 3.73989 4.62298 3.68429C4.64372 3.57024 4.68443 3.3797 4.75557 3.09514L-3.00557 1.15486C-3.15942 1.77027 -3.375 2.68667 -3.375 3.5H4.625ZM25.9404 10.9097C25.3971 25.1194 25.125 38.3584 25.125 50.625H33.125C33.125 38.4749 33.3946 25.339 33.9346 11.2153L25.9404 10.9097ZM25.125 50.625C25.125 57.4303 25.3555 70.3936 25.8137 89.471L33.8113 89.279C33.3529 70.1898 33.125 57.3197 33.125 50.625H25.125ZM29.6267 93.3707C31.5118 93.4584 34.1475 93.5 37.5 93.5V85.5C34.1858 85.5 31.6965 85.4583 29.9983 85.3793L29.6267 93.3707ZM37.5 93.5C44.65 93.5 51.1559 92.4187 56.9498 90.1655L54.0502 82.7095C49.3441 84.5396 43.85 85.5 37.5 85.5V93.5ZM56.9754 90.1555C62.7192 87.8762 67.5618 84.655 71.3958 80.4423L65.4792 75.0577C62.5632 78.2617 58.7808 80.8322 54.0246 82.7195L56.9754 90.1555ZM71.3958 80.4423C75.1641 76.3019 77.9769 71.4394 79.8509 65.9087L72.2741 63.3413C70.7314 67.894 68.4609 71.7815 65.4792 75.0577L71.3958 80.4423ZM79.8447 65.9271C81.7574 60.3709 82.6875 54.3198 82.6875 47.8125H74.6875C74.6875 53.5552 73.8676 58.7125 72.2803 63.3229L79.8447 65.9271ZM82.6875 47.8125C82.6875 44.4344 82.4207 41.1131 81.8845 37.8512L73.9905 39.1488C74.4543 41.9702 74.6875 44.8573 74.6875 47.8125H82.6875ZM81.8845 37.8512C81.3455 34.5723 80.4964 31.2521 79.3472 27.8927L71.7778 30.4823C72.7953 33.4562 73.5295 36.3444 73.9905 39.1488L81.8845 37.8512ZM79.3472 27.8927C78.1393 24.3622 76.4605 21.0941 74.3106 18.103L67.8144 22.772C69.4979 25.1142 70.819 27.6794 71.7778 30.4823L79.3472 27.8927ZM74.3106 18.103C72.1655 15.1185 69.6069 12.4704 66.6501 10.1604L61.7249 16.4646C64.1015 18.3213 66.1262 20.4231 67.8144 22.772L74.3106 18.103ZM66.7043 10.2035C63.6044 7.69406 59.8663 5.83212 55.5907 4.54483L53.2843 12.2052C56.7587 13.2512 59.5206 14.6809 61.6707 16.4215L66.7043 10.2035ZM55.64 4.56004C51.3608 3.21116 46.6979 2.5625 41.6875 2.5625V10.5625C46.0104 10.5625 49.8475 11.1222 53.235 12.19L55.64 4.56004ZM41.6875 2.5625C37.2316 2.5625 33.1091 2.84342 29.3328 3.42098L30.5422 11.329C33.8492 10.8232 37.56 10.5625 41.6875 10.5625V2.5625ZM25.9375 7.375V11.0625H33.9375V7.375H25.9375ZM108.375 2.125L108.518 -1.87245L105.28 -1.98808L104.494 1.15486L108.375 2.125ZM130.25 2.625V6.625H130.262L130.273 6.62493L130.25 2.625ZM189.625 2.125L193.592 1.60934L193.124 -1.99121L189.495 -1.87288L189.625 2.125ZM192.812 14L189.128 15.5559L189.131 15.5633L189.134 15.5707L192.812 14ZM198.875 25.875L202.494 27.5782L203.39 25.6743L202.329 23.8574L198.875 25.875ZM196.688 27.5625L193.152 29.4341L194.792 32.5303L198.077 31.3135L196.688 27.5625ZM183.188 13.75L181.103 17.1642L181.113 17.1702L181.123 17.1761L183.188 13.75ZM171.125 8.9375L170.115 12.808L170.123 12.8101L171.125 8.9375ZM154.688 6.4375L154.957 2.4466L154.822 2.4375H154.688V6.4375ZM137.438 6.4375V2.4375H133.559L133.439 6.31463L137.438 6.4375ZM136.625 46.25H132.625V50.25H136.625V46.25ZM157.812 46L158.444 49.9498L158.506 49.9399L158.568 49.928L157.812 46ZM160.812 45L162.601 48.5777L162.665 48.5458L162.728 48.5116L160.812 45ZM163.25 43.625L165.278 47.0727L165.307 47.0557L165.336 47.0381L163.25 43.625ZM165.5 41.625L168.537 44.2282L168.567 44.1934L168.596 44.158L165.5 41.625ZM167.375 39.375L170.412 41.9782L170.456 41.9267L170.498 41.8738L167.375 39.375ZM172.5 30.3125L168.962 28.4455L168.942 28.4843L168.922 28.5236L172.5 30.3125ZM174.312 26.9375L175.756 23.2072L172.508 21.9496L170.816 24.9949L174.312 26.9375ZM176.688 28.5625L180.166 30.5369L181.219 28.6817L180.265 26.7736L176.688 28.5625ZM176.688 67.75L180.265 69.5389L181.234 67.601L180.14 65.7308L176.688 67.75ZM174.312 69.4375L170.808 71.3652L172.464 74.3759L175.69 73.193L174.312 69.4375ZM172.375 65.875L168.797 67.6639L168.826 67.7209L168.856 67.7771L172.375 65.875ZM170.5 62.25L166.995 64.1777L170.5 62.25ZM166.5 56.0625L163.412 58.6053L163.456 58.6579L163.501 58.709L166.5 56.0625ZM164.188 53.6875L161.426 56.5809L161.458 56.6115L161.49 56.6414L164.188 53.6875ZM161.438 51.75L159.649 55.3277L159.715 55.3608L159.782 55.3915L161.438 51.75ZM158.25 50.625L157.151 54.4711L157.231 54.4939L157.311 54.5133L158.25 50.625ZM136.625 50.125V46.125H132.625V50.125H136.625ZM137.312 90.1875L133.314 90.2788L133.403 94.1875H137.312V90.1875ZM157.25 90.1875V94.1875H157.385L157.52 94.1784L157.25 90.1875ZM173.688 87.6875L172.686 83.8149L172.678 83.817L173.688 87.6875ZM185.75 82.875L183.686 79.4489L183.676 79.4548L183.666 79.4608L185.75 82.875ZM193.812 76.625L190.93 73.8515L193.812 76.625ZM199.25 69.0625L200.639 65.3115L197.354 64.0947L195.715 67.1909L199.25 69.0625ZM201.438 70.6875L205.015 72.4764L205.91 70.6875L205.015 68.8986L201.438 70.6875ZM198.062 76.9375L201.584 78.8339L201.613 78.7805L201.64 78.7264L198.062 76.9375ZM196.562 79.875L192.985 78.0861L192.974 78.108L192.963 78.1299L196.562 79.875ZM195.062 83.25L198.776 84.7356L198.789 84.7049L198.8 84.674L195.062 83.25ZM193.875 86.4375L190.105 85.0999L190.086 85.1544L190.068 85.2095L193.875 86.4375ZM192.812 90.25L188.917 89.3411L188.906 89.3902L188.895 89.4396L192.812 90.25ZM192.188 94V98H195.705L196.155 94.5119L192.188 94ZM108.25 94.375L104.455 95.6399L105.397 98.4651L108.374 98.3731L108.25 94.375ZM108.25 91.4375L107.903 87.4525L104.916 87.7123L104.328 90.653L108.25 91.4375ZM112.875 90.9375L113.441 94.8973L113.498 94.8891L113.555 94.8793L112.875 90.9375ZM117.25 90L116.324 86.1088L116.313 86.1113L116.302 86.1139L117.25 90ZM121.25 88.25L123.783 91.3458L123.824 91.3121L123.864 91.2773L121.25 88.25ZM122.688 85.4375L126.685 85.5912L126.685 85.5907L122.688 85.4375ZM122.812 11.0625L118.815 11.2162L118.816 11.2244L118.816 11.2326L122.812 11.0625ZM121.375 8.3125L118.761 11.3398L118.801 11.3746L118.842 11.4083L121.375 8.3125ZM117.375 6.5L116.427 10.3861L116.438 10.3887L116.449 10.3912L117.375 6.5ZM113 5.625L112.297 9.56271L112.375 9.57665L112.453 9.58748L113 5.625ZM108.375 5.0625L104.47 5.93022L105.107 8.79338L108.028 9.04746L108.375 5.0625ZM108.232 6.12245C117.583 6.4564 124.929 6.625 130.25 6.625V-1.375C125.071 -1.375 117.834 -1.53973 108.518 -1.87245L108.232 6.12245ZM130.273 6.62493C165.978 6.41686 185.852 6.25016 189.755 6.12288L189.495 -1.87288C185.731 -1.75016 166.022 -1.58353 130.227 -1.37493L130.273 6.62493ZM185.658 2.64066C186.245 7.15359 187.399 11.4628 189.128 15.5559L196.497 12.4441C195.059 9.03717 194.088 5.42974 193.592 1.60934L185.658 2.64066ZM189.134 15.5707C190.795 19.4603 192.895 23.5687 195.421 27.8926L202.329 23.8574C199.938 19.7646 197.997 15.9564 196.491 12.4293L189.134 15.5707ZM195.256 24.1718C195.326 24.0216 195.408 23.9019 195.482 23.8132C195.555 23.7263 195.613 23.6781 195.635 23.661C195.656 23.6445 195.646 23.6555 195.589 23.6856C195.532 23.7156 195.438 23.7596 195.298 23.8115L198.077 31.3135C199.673 30.7222 201.527 29.6346 202.494 27.5782L195.256 24.1718ZM200.223 25.6909C198.556 22.5432 196.528 19.7157 194.132 17.2265L188.368 22.7735C190.222 24.701 191.819 26.9151 193.152 29.4341L200.223 25.6909ZM194.132 17.2265C191.715 14.7142 188.734 12.422 185.252 10.3239L181.123 17.1761C184.141 18.9947 186.535 20.8691 188.368 22.7735L194.132 17.2265ZM185.272 10.3358C181.637 8.11751 177.224 6.3833 172.127 5.06491L170.123 12.8101C174.692 13.9917 178.321 15.4658 181.103 17.1642L185.272 10.3358ZM172.135 5.06703C167.05 3.74053 161.315 2.87619 154.957 2.4466L154.418 10.4284C160.393 10.8321 165.617 11.6345 170.115 12.808L172.135 5.06703ZM154.688 2.4375H137.438V10.4375H154.688V2.4375ZM133.439 6.31463C132.897 23.9493 132.625 37.2699 132.625 46.25H140.625C140.625 37.3968 140.894 24.1757 141.436 6.56037L133.439 6.31463ZM136.625 50.25H154.438V42.25H136.625V50.25ZM154.438 50.25C155.828 50.25 157.166 50.1543 158.444 49.9498L157.181 42.0502C156.375 42.1791 155.464 42.25 154.438 42.25V50.25ZM158.568 49.928C159.983 49.6559 161.334 49.2115 162.601 48.5777L159.024 41.4223C158.458 41.7052 157.809 41.9274 157.057 42.072L158.568 49.928ZM162.728 48.5116C163.673 47.9961 164.524 47.5162 165.278 47.0727L161.222 40.1773C160.559 40.5671 159.785 41.0039 158.897 41.4884L162.728 48.5116ZM165.336 47.0381C166.535 46.3054 167.594 45.3282 168.537 44.2282L162.463 39.0218C161.906 39.6718 161.465 40.0279 161.164 40.2119L165.336 47.0381ZM168.596 44.158C169.336 43.2538 169.939 42.5295 170.412 41.9782L164.338 36.7718C163.811 37.3872 163.164 38.1629 162.404 39.092L168.596 44.158ZM170.498 41.8738C171.196 41.0017 171.923 39.8487 172.668 38.5346L165.707 34.5904C165.035 35.7763 164.554 36.4983 164.252 36.8762L170.498 41.8738ZM172.668 38.5346C173.383 37.2729 173.946 36.2551 174.348 35.4966L167.277 31.7534C166.929 32.4116 166.409 33.3521 165.707 34.5904L172.668 38.5346ZM174.348 35.4966C174.746 34.7449 175.325 33.606 176.078 32.1014L168.922 28.5236C168.175 30.019 167.629 31.0885 167.277 31.7534L174.348 35.4966ZM176.038 32.1795C176.826 30.6855 177.414 29.5913 177.809 28.8801L170.816 24.9949C170.378 25.7837 169.757 26.9395 168.962 28.4455L176.038 32.1795ZM172.869 30.6678C173.095 30.7556 173.269 30.8334 173.399 30.898C173.529 30.9634 173.596 31.0063 173.616 31.02C173.638 31.0349 173.584 31.0015 173.494 30.9074C173.402 30.8122 173.249 30.6306 173.11 30.3514L180.265 26.7736C179.705 25.6541 178.845 24.9042 178.134 24.4175C177.399 23.9148 176.575 23.5239 175.756 23.2072L172.869 30.6678ZM173.209 26.5881C171.31 29.9333 169.726 33.6043 168.443 37.5857L176.057 40.0393C177.191 36.5207 178.565 33.3583 180.166 30.5369L173.209 26.5881ZM168.443 37.5857C167.171 41.5315 166.438 45.1027 166.438 48.1875H174.438C174.438 46.2723 174.912 43.5935 176.057 40.0393L168.443 37.5857ZM166.438 48.1875C166.438 55.0402 168.844 62.2621 173.235 69.7692L180.14 65.7308C176.197 58.9879 174.438 53.1681 174.438 48.1875H166.438ZM173.11 65.9611C173.312 65.5571 173.545 65.3983 173.527 65.4112C173.523 65.4142 173.477 65.4454 173.375 65.4965C173.274 65.5473 173.13 65.6107 172.935 65.682L175.69 73.193C177.213 72.6344 179.23 71.6086 180.265 69.5389L173.11 65.9611ZM177.817 67.5098C177.366 66.6893 176.726 65.5119 175.894 63.9729L168.856 67.7771C169.691 69.3215 170.342 70.519 170.808 71.3652L177.817 67.5098ZM175.953 64.0861C175.154 62.4885 174.501 61.2249 174.005 60.3223L166.995 64.1777C167.415 64.9418 168.013 66.0949 168.797 67.6639L175.953 64.0861ZM174.005 60.3223C173.504 59.4118 172.843 58.2901 172.035 56.9723L165.215 61.1527C165.99 62.4182 166.579 63.4215 166.995 64.1777L174.005 60.3223ZM172.035 56.9723C171.186 55.5861 170.34 54.3689 169.499 53.416L163.501 58.709C163.91 59.1727 164.481 59.9555 165.215 61.1527L172.035 56.9723ZM169.588 53.5197C168.846 52.6192 167.93 51.6885 166.885 50.7336L161.49 56.6414C162.361 57.4365 162.987 58.0891 163.412 58.6053L169.588 53.5197ZM166.949 50.7941C165.789 49.686 164.508 48.7517 163.093 48.1085L159.782 55.3915C160.201 55.5817 160.753 55.939 161.426 56.5809L166.949 50.7941ZM163.226 48.1723C161.989 47.5535 160.631 47.0849 159.189 46.7367L157.311 54.5133C158.285 54.7484 159.053 55.0298 159.649 55.3277L163.226 48.1723ZM159.349 46.7789C157.781 46.3309 156.136 46.125 154.438 46.125V54.125C155.489 54.125 156.386 54.2524 157.151 54.4711L159.349 46.7789ZM154.438 46.125H136.625V54.125H154.438V46.125ZM132.625 50.125C132.625 56.8034 132.855 70.2034 133.314 90.2788L141.311 90.0962C140.853 70.0049 140.625 56.6966 140.625 50.125H132.625ZM137.312 94.1875H157.25V86.1875H137.312V94.1875ZM157.52 94.1784C163.878 93.7488 169.612 92.8845 174.697 91.558L172.678 83.817C168.179 84.9905 162.956 85.7929 156.98 86.1966L157.52 94.1784ZM174.689 91.5601C179.787 90.2417 184.2 88.5075 187.834 86.2892L183.666 79.4608C180.884 81.1592 177.255 82.6333 172.686 83.8149L174.689 91.5601ZM187.814 86.3011C191.296 84.203 194.277 81.9108 196.695 79.3985L190.93 73.8515C189.098 75.7559 186.704 77.6303 183.686 79.4489L187.814 86.3011ZM196.695 79.3985C199.09 76.9093 201.119 74.0818 202.785 70.9341L195.715 67.1909C194.381 69.7099 192.785 71.924 190.93 73.8515L196.695 79.3985ZM197.861 72.8135C198.011 72.8692 198.116 72.9171 198.183 72.9519C198.25 72.9868 198.27 73.0029 198.255 72.9922C198.225 72.9697 198.028 72.8136 197.86 72.4764L205.015 68.8986C204.02 66.9076 202.165 65.8765 200.639 65.3115L197.861 72.8135ZM197.86 68.8986C197.696 69.2252 197.201 70.1439 196.312 71.7528L203.313 75.6222C204.174 74.0644 204.762 72.9831 205.015 72.4764L197.86 68.8986ZM196.312 71.7528C195.441 73.3283 194.819 74.4808 194.485 75.1486L201.64 78.7264C201.89 78.2275 202.434 77.2133 203.313 75.6222L196.312 71.7528ZM194.541 75.0411C194.217 75.6428 193.692 76.6722 192.985 78.0861L200.14 81.6639C200.85 80.2445 201.325 79.3156 201.584 78.8339L194.541 75.0411ZM192.963 78.1299C192.273 79.5533 191.717 80.7959 191.325 81.826L198.8 84.674C199.075 83.9541 199.519 82.9467 200.162 81.6201L192.963 78.1299ZM191.349 81.7644C190.988 82.665 190.573 83.7814 190.105 85.0999L197.645 87.7751C198.094 86.5103 198.47 85.5017 198.776 84.7356L191.349 81.7644ZM190.068 85.2095C189.62 86.6003 189.235 87.9776 188.917 89.3411L196.708 91.1589C196.973 90.0224 197.297 88.858 197.682 87.6655L190.068 85.2095ZM188.895 89.4396C188.624 90.752 188.399 92.1018 188.22 93.4881L196.155 94.5119C196.309 93.3148 196.501 92.1646 196.73 91.0604L188.895 89.4396ZM192.188 90H137.312V98H192.188V90ZM137.312 90C125.994 90 116.263 90.1253 108.126 90.3769L108.374 98.3731C116.403 98.1247 126.047 98 137.312 98V90ZM112.045 93.1101C112.024 93.0478 112.009 92.9991 112 92.9632C111.99 92.927 111.986 92.9074 111.985 92.903C111.984 92.8984 111.987 92.9144 111.991 92.9489C111.995 92.9831 112 93.043 112 93.125H104C104 94.0633 104.222 94.9403 104.455 95.6399L112.045 93.1101ZM112 93.125C112 93.2266 111.994 93.2756 111.997 93.2439C111.999 93.2204 112.005 93.1652 112.019 93.0706C112.048 92.8794 112.096 92.6015 112.172 92.222L104.328 90.653C104.173 91.4284 104 92.3741 104 93.125H112ZM108.597 95.4225C110.547 95.2529 112.17 95.0788 113.441 94.8973L112.309 86.9777C111.246 87.1296 109.786 87.2888 107.903 87.4525L108.597 95.4225ZM113.555 94.8793C114.882 94.6504 116.435 94.316 118.198 93.8861L116.302 86.1139C114.648 86.5174 113.284 86.8079 112.195 86.9957L113.555 94.8793ZM118.176 93.8912C120.237 93.4005 122.218 92.6261 123.783 91.3458L118.717 85.1542C118.449 85.3739 117.763 85.7662 116.324 86.1088L118.176 93.8912ZM123.864 91.2773C125.512 89.8548 126.595 87.9186 126.685 85.5912L118.69 85.2838C118.691 85.2806 118.692 85.2586 118.701 85.2244C118.71 85.1897 118.722 85.1577 118.735 85.1327C118.748 85.1084 118.754 85.1031 118.743 85.1164C118.732 85.1306 118.7 85.1673 118.636 85.2227L123.864 91.2773ZM126.685 85.5907C127.187 72.4972 127.438 59.3003 127.438 46H119.438C119.438 59.1997 119.188 72.2944 118.69 85.2843L126.685 85.5907ZM127.438 46C127.438 32.4627 127.229 20.7573 126.809 10.8924L118.816 11.2326C119.23 20.951 119.438 32.5373 119.438 46H127.438ZM126.81 10.9088C126.719 8.56649 125.619 6.61699 123.908 5.21667L118.842 11.4083C118.868 11.4297 118.886 11.4463 118.898 11.4575C118.909 11.4686 118.914 11.4744 118.914 11.4745C118.914 11.4745 118.91 11.4694 118.903 11.459C118.896 11.4485 118.887 11.434 118.877 11.4155C118.857 11.3765 118.84 11.3327 118.828 11.2893C118.817 11.2466 118.816 11.2198 118.815 11.2162L126.81 10.9088ZM123.989 5.28521C122.409 3.92035 120.396 3.10755 118.301 2.60878L116.449 10.3912C117.854 10.7258 118.508 11.1213 118.761 11.3398L123.989 5.28521ZM118.323 2.61392C116.534 2.17773 114.934 1.85394 113.547 1.66252L112.453 9.58748C113.482 9.7294 114.799 9.98894 116.427 10.3861L118.323 2.61392ZM113.703 1.68729C112.369 1.44902 110.694 1.24906 108.722 1.07754L108.028 9.04746C109.889 9.20927 111.298 9.38431 112.297 9.56271L113.703 1.68729ZM112.28 4.19478C112.207 3.86614 112.162 3.63215 112.137 3.47741C112.125 3.4014 112.121 3.36244 112.12 3.3536C112.118 3.33856 112.125 3.39487 112.125 3.5H104.125C104.125 4.2886 104.311 5.21156 104.47 5.93022L112.28 4.19478ZM112.125 3.5C112.125 3.64389 112.114 3.73369 112.113 3.7408C112.111 3.75598 112.113 3.73989 112.123 3.68429C112.144 3.57024 112.184 3.3797 112.256 3.09514L104.494 1.15486C104.341 1.77027 104.125 2.68667 104.125 3.5H112.125ZM269 28.5625L265.084 29.3758L265.552 31.6294L267.735 32.3572L269 28.5625ZM260.25 10.8125L257.422 13.6409L257.429 13.6479L257.436 13.6548L260.25 10.8125ZM231.562 8.625L228.959 5.58797L228.95 5.59639L228.94 5.60487L231.562 8.625ZM230.312 30.8125L227.332 33.4797L227.349 33.4995L227.367 33.519L230.312 30.8125ZM236.5 34.9375L234.87 38.5904L234.894 38.6009L234.918 38.6112L236.5 34.9375ZM247.125 38.3125L246.164 42.1952L246.171 42.197L247.125 38.3125ZM253.312 39.9375L252.214 43.7836L252.225 43.787L252.237 43.7903L253.312 39.9375ZM259.188 42L257.665 45.6987L257.677 45.7039L257.69 45.709L259.188 42ZM264.75 44.8125L262.573 48.1683L262.594 48.1815L262.614 48.1945L264.75 44.8125ZM269.438 48.5625L266.648 51.4294L266.687 51.4676L266.728 51.5047L269.438 48.5625ZM273.25 53.4375L269.723 55.3241L269.74 55.3557L269.757 55.387L273.25 53.4375ZM275.625 59.8125L271.733 60.736L271.742 60.7751L271.752 60.814L275.625 59.8125ZM274.438 78.375L278.097 79.9907L278.1 79.982L278.104 79.9733L274.438 78.375ZM268.875 86.5L266.099 83.6197L268.875 86.5ZM251.812 95.5L250.917 91.6015L251.812 95.5ZM213.062 89.375L209.067 89.19L208.942 91.8869L211.396 93.0115L213.062 89.375ZM211.688 60.75L209.54 57.3754L207.307 58.7965L207.742 61.4076L211.688 60.75ZM214.625 60.75L218.573 60.1073L218.285 58.3378L216.773 57.3754L214.625 60.75ZM218.938 75L215.338 76.7451L215.345 76.7598L215.353 76.7744L218.938 75ZM225.938 84.8125L223.228 87.7553L223.241 87.767L223.254 87.7786L225.938 84.8125ZM234.062 90.1875L232.474 93.8584L232.506 93.8726L232.54 93.8862L234.062 90.1875ZM257.688 86.875L260.464 89.7544L260.465 89.7538L257.688 86.875ZM259.062 60.6875L256.087 63.361L256.108 63.3836L256.128 63.406L259.062 60.6875ZM244.188 53.6875L243.217 57.5681L243.228 57.5707L243.238 57.5732L244.188 53.6875ZM222.688 43.5625L220.048 46.5683L220.061 46.5796L220.074 46.5909L222.688 43.5625ZM216.875 15.375L213.186 13.8295L213.18 13.842L213.175 13.8546L216.875 15.375ZM221.812 8L224.515 10.9486L224.518 10.9461L221.812 8ZM228.938 3.375L230.567 7.02792L230.591 7.01753L230.614 7.00684L228.938 3.375ZM236.938 0.8125L237.626 4.75289L237.65 4.74859L237.675 4.74399L236.938 0.8125ZM270.812 5.8125L274.792 6.21719L275.089 3.29699L272.392 2.1377L270.812 5.8125ZM271.938 28.5625L273.373 32.2959L276.719 31.0089L275.805 27.5424L271.938 28.5625ZM272.916 27.7492C271.221 19.584 268.019 12.8766 263.064 7.97017L257.436 13.6548C260.981 17.1651 263.612 22.291 265.084 29.3758L272.916 27.7492ZM263.078 7.98407C258.125 3.03056 252.047 0.5 245.062 0.5V8.5C249.911 8.5 253.958 10.1778 257.422 13.6409L263.078 7.98407ZM245.062 0.5C238.67 0.5 233.122 2.01959 228.959 5.58797L234.166 11.662C236.419 9.73041 239.872 8.5 245.062 8.5V0.5ZM228.94 5.60487C224.811 9.19058 222.812 14.0041 222.812 19.625H230.812C230.812 16.0792 231.981 13.5594 234.185 11.6451L228.94 5.60487ZM222.812 19.625C222.812 22.3736 223.057 24.8653 223.643 26.9981L231.357 24.8769C231.027 23.6764 230.812 21.9598 230.812 19.625H222.812ZM223.643 26.9981C224.299 29.3818 225.595 31.5393 227.332 33.4797L233.293 28.1453C232.196 26.919 231.618 25.8266 231.357 24.8769L223.643 26.9981ZM227.367 33.519C229.273 35.5932 231.856 37.2456 234.87 38.5904L238.13 31.2846C235.727 30.2128 234.185 29.1152 233.258 28.106L227.367 33.519ZM234.918 38.6112C237.902 39.8969 241.675 41.0837 246.164 42.1952L248.086 34.4298C243.825 33.3746 240.514 32.3114 238.082 31.2638L234.918 38.6112ZM246.171 42.197C248.513 42.7722 250.525 43.301 252.214 43.7836L254.411 36.0914C252.6 35.574 250.487 35.0194 248.079 34.428L246.171 42.197ZM252.237 43.7903C253.846 44.2393 255.653 44.8705 257.665 45.6987L260.71 38.3013C258.472 37.3795 256.362 36.6357 254.388 36.0847L252.237 43.7903ZM257.69 45.709C259.68 46.5127 261.295 47.339 262.573 48.1683L266.927 41.4567C265.122 40.286 263.029 39.2373 260.685 38.291L257.69 45.709ZM262.614 48.1945C263.931 49.026 265.277 50.0954 266.648 51.4294L272.227 45.6956C270.515 44.0296 268.736 42.599 266.886 41.4305L262.614 48.1945ZM266.728 51.5047C268.001 52.6776 268.988 53.9505 269.723 55.3241L276.777 51.5509C275.595 49.3411 274.041 47.3641 272.147 45.6203L266.728 51.5047ZM269.757 55.387C270.542 56.7925 271.216 58.557 271.733 60.736L279.517 58.889C278.867 56.1513 277.958 53.6659 276.743 51.488L269.757 55.387ZM271.752 60.814C272.281 62.8585 272.562 65.1629 272.562 67.75H280.562C280.562 64.5871 280.219 61.5998 279.498 58.811L271.752 60.814ZM272.562 67.75C272.562 71.0785 271.95 74.0707 270.771 76.7767L278.104 79.9733C279.758 76.1793 280.562 72.0882 280.562 67.75H272.562ZM270.778 76.7593C269.55 79.5413 267.981 81.8067 266.099 83.6197L271.651 89.3803C274.352 86.7767 276.492 83.6254 278.097 79.9907L270.778 76.7593ZM266.099 83.6197C264.105 85.5415 261.783 87.1933 259.109 88.5673L262.766 95.6827C266.092 93.9734 269.062 91.8752 271.651 89.3803L266.099 83.6197ZM259.109 88.5673C256.385 89.9671 253.656 90.9724 250.917 91.6015L252.708 99.3985C256.136 98.611 259.49 97.3663 262.766 95.6827L259.109 88.5673ZM250.917 91.6015C248.116 92.2451 245.353 92.5625 242.625 92.5625V100.562C245.98 100.562 249.343 100.172 252.708 99.3985L250.917 91.6015ZM242.625 92.5625C234.072 92.5625 224.788 90.3474 214.729 85.7385L211.396 93.0115C222.254 97.9859 232.678 100.562 242.625 100.562V92.5625ZM217.058 89.56C217.265 85.0994 217.375 82.2189 217.375 81.0625H209.375C209.375 81.9895 209.277 84.6506 209.067 89.19L217.058 89.56ZM217.375 81.0625C217.375 74.0488 216.794 67.0581 215.633 60.0924L207.742 61.4076C208.831 67.9419 209.375 74.4928 209.375 81.0625H217.375ZM213.835 64.1246C213.772 64.1647 213.496 64.3125 213.062 64.3125V56.3125C211.712 56.3125 210.52 56.752 209.54 57.3754L213.835 64.1246ZM213.062 64.3125C213.018 64.3125 212.929 64.3065 212.812 64.2737C212.693 64.2404 212.578 64.1885 212.477 64.1246L216.773 57.3754C215.625 56.6449 214.348 56.3125 213.062 56.3125V64.3125ZM210.677 61.3927C211.603 67.0805 213.141 72.2132 215.338 76.7451L222.537 73.2549C220.734 69.5368 219.397 65.1695 218.573 60.1073L210.677 61.3927ZM215.353 76.7744C217.552 81.2178 220.154 84.9253 223.228 87.7553L228.647 81.8697C226.471 79.8664 224.406 77.0322 222.522 73.2256L215.353 76.7744ZM223.254 87.7786C226.151 90.3998 229.221 92.4507 232.474 93.8584L235.651 86.5166C233.32 85.5076 230.974 83.9752 228.621 81.8464L223.254 87.7786ZM232.54 93.8862C235.824 95.2386 239.194 95.9375 242.625 95.9375V87.9375C240.306 87.9375 237.968 87.4698 235.585 86.4888L232.54 93.8862ZM242.625 95.9375C249.836 95.9375 255.991 94.0677 260.464 89.7544L254.911 83.9956C252.384 86.4323 248.497 87.9375 242.625 87.9375V95.9375ZM260.465 89.7538C264.896 85.4789 267 79.8841 267 73.375H259C259 78.0326 257.562 81.4377 254.91 83.9962L260.465 89.7538ZM267 73.375C267 67.1966 265.563 61.8188 261.997 57.969L256.128 63.406C257.812 65.2229 259 68.3034 259 73.375H267ZM262.038 58.014C258.606 54.1947 252.628 51.6319 245.137 49.8018L243.238 57.5732C250.414 59.3264 254.352 61.4303 256.087 63.361L262.038 58.014ZM245.158 49.8069C236.377 47.6119 229.848 44.4576 225.301 40.5341L220.074 46.5909C225.861 51.584 233.664 55.1798 243.217 57.5681L245.158 49.8069ZM225.327 40.5567C221.143 36.8832 219 32.0795 219 25.75H211C211 34.1705 213.982 41.2418 220.048 46.5683L225.327 40.5567ZM219 25.75C219 22.3051 219.555 19.3768 220.575 16.8954L213.175 13.8546C211.695 17.4566 211 21.4449 211 25.75H219ZM220.564 16.9205C221.683 14.2498 223.029 12.3113 224.515 10.9486L219.11 5.05138C216.596 7.35541 214.65 10.3335 213.186 13.8295L220.564 16.9205ZM224.518 10.9461C226.22 9.38303 228.226 8.0726 230.567 7.02792L227.308 -0.277925C224.233 1.09406 221.488 2.86697 219.107 5.05388L224.518 10.9461ZM230.614 7.00684C233.044 5.88502 235.38 5.145 237.626 4.75289L236.249 -3.12789C233.245 -2.60334 230.247 -1.63502 227.261 -0.256838L230.614 7.00684ZM237.675 4.74399C240.095 4.29018 242.556 4.0625 245.062 4.0625V-3.9375C242.069 -3.9375 239.113 -3.66518 236.2 -3.11899L237.675 4.74399ZM245.062 4.0625C252.682 4.0625 260.728 5.83118 269.233 9.4873L272.392 2.1377C263.063 -1.87284 253.943 -3.9375 245.062 -3.9375V4.0625ZM266.833 5.40781C266.568 8.01067 266.438 10.7087 266.438 13.5H274.438C274.438 10.958 274.557 8.531 274.792 6.21719L266.833 5.40781ZM266.438 13.5C266.438 19.9165 266.946 25.3214 268.07 29.5826L275.805 27.5424C274.929 24.2203 274.438 19.5835 274.438 13.5H266.438ZM270.502 24.8291C270.438 24.8537 270.389 24.8704 270.354 24.8813C270.336 24.8867 270.323 24.8905 270.314 24.8929C270.305 24.8954 270.301 24.8964 270.301 24.8963C270.301 24.8963 270.306 24.8951 270.316 24.8933C270.326 24.8915 270.342 24.889 270.363 24.8864C270.404 24.8812 270.472 24.875 270.562 24.875V32.875C271.622 32.875 272.597 32.5945 273.373 32.2959L270.502 24.8291ZM270.562 24.875C270.678 24.875 270.713 24.8883 270.644 24.8746C270.579 24.8616 270.456 24.8314 270.265 24.7678L267.735 32.3572C268.56 32.6321 269.541 32.875 270.562 32.875V24.875ZM289.125 2.125L289.268 -1.87245L286.277 -1.97927L285.33 0.860089L289.125 2.125ZM332.625 2.125L336.506 1.15486L335.72 -1.98808L332.482 -1.87245L332.625 2.125ZM332.625 5.0625L332.972 9.04746L335.715 8.80893L336.471 6.16138L332.625 5.0625ZM327.938 5.625L328.503 9.5848L328.56 9.57664L328.617 9.56684L327.938 5.625ZM323.562 6.5L322.636 2.60878L322.625 2.61132L322.615 2.61392L323.562 6.5ZM319.625 8.3125L322.158 11.4083L322.199 11.3746L322.239 11.3398L319.625 8.3125ZM318.188 11.0625L314.19 10.9088L314.19 10.9097L318.188 11.0625ZM318.062 85.4375L314.065 85.5657L314.065 85.5785L314.065 85.5912L318.062 85.4375ZM319.5 88.25L316.886 91.2773L316.926 91.3121L316.967 91.3458L319.5 88.25ZM323.438 90L322.49 93.8861L322.5 93.8887L322.511 93.8912L323.438 90ZM327.812 90.9375L327.109 94.8752L327.187 94.8891L327.266 94.9L327.812 90.9375ZM332.5 91.4375L336.295 90.1726L335.464 87.6801L332.847 87.4525L332.5 91.4375ZM332.5 94.375L332.359 98.3725L335.349 98.478L336.295 95.6399L332.5 94.375ZM289 94.375L285.205 95.6399L286.152 98.4793L289.143 98.3725L289 94.375ZM289 91.4375L288.602 87.4574L286.187 87.6988L285.286 89.9519L289 91.4375ZM295.062 90.6875L294.445 86.7355L294.435 86.737L294.426 86.7385L295.062 90.6875ZM298.25 90L299.455 93.8143L299.513 93.7958L299.571 93.7754L298.25 90ZM302.75 87.4375L299.605 84.9662L299.548 85.0381L299.495 85.1125L302.75 87.4375ZM303.438 85.4375L299.44 85.2843L299.438 85.3609V85.4375H303.438ZM303.562 11.0625L299.565 11.2162L299.566 11.2244L299.566 11.2326L303.562 11.0625ZM302.125 8.3125L299.511 11.3398L299.551 11.3746L299.592 11.4083L302.125 8.3125ZM298.125 6.5L297.177 10.3861L297.188 10.3887L297.199 10.3912L298.125 6.5ZM293.75 5.625L293.047 9.56271L293.125 9.57665L293.203 9.58748L293.75 5.625ZM289.125 5.0625L285.22 5.93022L285.857 8.79338L288.778 9.04746L289.125 5.0625ZM288.982 6.12245C298.332 6.45637 305.637 6.625 310.875 6.625V-1.375C305.779 -1.375 298.585 -1.5397 289.268 -1.87245L288.982 6.12245ZM310.875 6.625C316.113 6.625 323.418 6.45637 332.768 6.12245L332.482 -1.87245C323.165 -1.5397 315.971 -1.375 310.875 -1.375V6.625ZM328.744 3.09514C328.816 3.3797 328.856 3.57024 328.877 3.68429C328.887 3.73989 328.889 3.75598 328.887 3.7408C328.886 3.73369 328.875 3.64389 328.875 3.5H336.875C336.875 2.68667 336.659 1.77027 336.506 1.15486L328.744 3.09514ZM328.875 3.5C328.875 3.48894 328.874 3.62962 328.779 3.96362L336.471 6.16138C336.709 5.32871 336.875 4.42772 336.875 3.5H328.875ZM332.278 1.07754C330.305 1.24913 328.62 1.44829 327.258 1.68316L328.617 9.56684C329.672 9.38505 331.111 9.20921 332.972 9.04746L332.278 1.07754ZM327.372 1.6652C326.039 1.85567 324.45 2.17681 322.636 2.60878L324.489 10.3912C326.175 9.98985 327.503 9.72767 328.503 9.5848L327.372 1.6652ZM322.615 2.61392C320.549 3.11776 318.574 3.9348 317.011 5.28521L322.239 11.3398C322.509 11.1069 323.159 10.7156 324.51 10.3861L322.615 2.61392ZM317.092 5.21667C315.381 6.61699 314.281 8.56649 314.19 10.9088L322.185 11.2162C322.184 11.2198 322.183 11.2466 322.172 11.2893C322.16 11.3327 322.143 11.3765 322.123 11.4155C322.113 11.434 322.104 11.4485 322.097 11.459C322.09 11.4694 322.086 11.4745 322.086 11.4745C322.086 11.4744 322.091 11.4686 322.102 11.4575C322.114 11.4463 322.132 11.4297 322.158 11.4083L317.092 5.21667ZM314.19 10.9097C313.647 25.1194 313.375 38.3584 313.375 50.625H321.375C321.375 38.4749 321.645 25.339 322.185 11.2153L314.19 10.9097ZM313.375 50.625C313.375 59.6019 313.606 71.2534 314.065 85.5657L322.06 85.3093C321.603 71.0382 321.375 59.4814 321.375 50.625H313.375ZM314.065 85.5912C314.155 87.9186 315.238 89.8548 316.886 91.2773L322.114 85.2227C322.05 85.1673 322.018 85.1306 322.007 85.1164C321.996 85.1031 322.002 85.1084 322.015 85.1327C322.028 85.1577 322.04 85.1897 322.049 85.2244C322.058 85.2586 322.059 85.2806 322.06 85.2838L314.065 85.5912ZM316.967 91.3458C318.515 92.6127 320.459 93.3907 322.49 93.8861L324.385 86.1139C323 85.776 322.318 85.3873 322.033 85.1542L316.967 91.3458ZM322.511 93.8912C324.301 94.3175 325.84 94.6486 327.109 94.8752L328.516 86.9998C327.452 86.8098 326.074 86.5158 324.364 86.1088L322.511 93.8912ZM327.266 94.9C328.567 95.0795 330.203 95.2529 332.153 95.4225L332.847 87.4525C330.963 87.2888 329.474 87.1289 328.359 86.975L327.266 94.9ZM328.705 92.7024C328.713 92.7268 328.75 92.8522 328.75 93.125H336.75C336.75 92.1478 336.62 91.1482 336.295 90.1726L328.705 92.7024ZM328.75 93.125C328.75 93.043 328.755 92.9831 328.759 92.9489C328.763 92.9144 328.766 92.8984 328.765 92.903C328.764 92.9074 328.76 92.927 328.75 92.9632C328.741 92.9991 328.726 93.0478 328.705 93.1101L336.295 95.6399C336.528 94.9403 336.75 94.0633 336.75 93.125H328.75ZM332.641 90.3775C325.509 90.1258 318.212 90 310.75 90V98C318.122 98 325.325 98.1242 332.359 98.3725L332.641 90.3775ZM310.75 90C303.206 90 295.908 90.1257 288.857 90.3775L289.143 98.3725C296.092 98.1243 303.294 98 310.75 98V90ZM292.795 93.1101C292.774 93.0478 292.759 92.9991 292.75 92.9632C292.74 92.927 292.736 92.9074 292.735 92.903C292.734 92.8984 292.737 92.9144 292.741 92.9489C292.745 92.9831 292.75 93.043 292.75 93.125H284.75C284.75 94.0633 284.972 94.9403 285.205 95.6399L292.795 93.1101ZM292.75 93.125C292.75 92.9216 292.762 92.8049 292.769 92.7581C292.772 92.7367 292.773 92.7411 292.766 92.7669C292.76 92.7925 292.744 92.8469 292.714 92.9231L285.286 89.9519C284.853 91.0343 284.75 92.1685 284.75 93.125H292.75ZM289.398 95.4176C290.654 95.292 291.671 95.1862 292.442 95.1005L291.558 87.1495C290.829 87.2305 289.846 87.333 288.602 87.4574L289.398 95.4176ZM292.442 95.1005C293.287 95.0066 294.382 94.8489 295.699 94.6365L294.426 86.7385C293.159 86.9428 292.213 87.0768 291.558 87.1495L292.442 95.1005ZM295.68 94.6395C297.106 94.4168 298.39 94.1505 299.455 93.8143L297.045 86.1857C296.527 86.3495 295.686 86.5416 294.445 86.7355L295.68 94.6395ZM299.571 93.7754C300.553 93.432 301.54 93.0215 302.532 92.5489L299.093 85.3261C298.335 85.6868 297.614 85.9847 296.929 86.2246L299.571 93.7754ZM302.532 92.5489C303.813 91.939 305.079 91.0582 306.005 89.7625L299.495 85.1125C299.587 84.9834 299.562 85.1027 299.093 85.3261L302.532 92.5489ZM305.895 89.9088C306.914 88.6124 307.438 87.0731 307.438 85.4375H299.438C299.438 85.3984 299.445 85.3108 299.483 85.1997C299.521 85.088 299.572 85.0079 299.605 84.9662L305.895 89.9088ZM307.435 85.5907C307.937 72.4972 308.188 59.3003 308.188 46H300.188C300.188 59.1997 299.938 72.2944 299.44 85.2843L307.435 85.5907ZM308.188 46C308.188 32.4627 307.979 20.7573 307.559 10.8924L299.566 11.2326C299.98 20.951 300.188 32.5373 300.188 46H308.188ZM307.56 10.9088C307.469 8.56649 306.369 6.61699 304.658 5.21667L299.592 11.4083C299.618 11.4297 299.636 11.4463 299.648 11.4575C299.659 11.4686 299.664 11.4744 299.664 11.4745C299.664 11.4745 299.66 11.4694 299.653 11.459C299.646 11.4485 299.637 11.434 299.627 11.4155C299.607 11.3765 299.59 11.3327 299.578 11.2893C299.567 11.2466 299.566 11.2198 299.565 11.2162L307.56 10.9088ZM304.739 5.28521C303.159 3.92035 301.146 3.10755 299.051 2.60878L297.199 10.3912C298.604 10.7258 299.258 11.1213 299.511 11.3398L304.739 5.28521ZM299.073 2.61392C297.284 2.17773 295.684 1.85394 294.297 1.66252L293.203 9.58748C294.232 9.7294 295.549 9.98894 297.177 10.3861L299.073 2.61392ZM294.453 1.68729C293.119 1.44902 291.444 1.24906 289.472 1.07754L288.778 9.04746C290.639 9.20927 292.048 9.38431 293.047 9.56271L294.453 1.68729ZM293.03 4.19478C292.957 3.86614 292.912 3.63215 292.887 3.47741C292.875 3.4014 292.871 3.36244 292.87 3.3536C292.868 3.33856 292.875 3.39487 292.875 3.5H284.875C284.875 4.2886 285.061 5.21156 285.22 5.93022L293.03 4.19478ZM292.875 3.5C292.875 3.55779 292.869 3.57957 292.873 3.55929C292.877 3.53868 292.889 3.48325 292.92 3.38991L285.33 0.860089C285.062 1.66499 284.875 2.55687 284.875 3.5H292.875ZM429.688 30.5L426.041 32.1436L427.264 34.8585L430.216 34.4649L429.688 30.5ZM425.75 22.75L422.281 24.7415L422.289 24.7555L422.297 24.7695L425.75 22.75ZM372.5 14.4375L369.381 11.9334L369.37 11.9468L369.359 11.9604L372.5 14.4375ZM366.562 24.75L362.868 23.2171L362.864 23.2271L362.86 23.237L366.562 24.75ZM363.188 36.5L367.131 37.1712L367.132 37.1643L363.188 36.5ZM363.25 60.375L359.313 61.0796L359.314 61.0869L363.25 60.375ZM366.75 72.0625L363.061 73.6094L363.068 73.6262L363.075 73.6429L366.75 72.0625ZM382 89.375L380.211 92.9527L380.235 92.9648L380.26 92.9767L382 89.375ZM413.438 85.9375L416.444 88.5759L417.438 87.4437V85.9375H413.438ZM412.375 58.25L409.547 61.0784L409.589 61.1213L409.634 61.1628L412.375 58.25ZM406.25 55.625L405.382 59.5297L405.444 59.5435L405.506 59.5553L406.25 55.625ZM398.938 54.5625L395.057 55.5326L395.75 58.3039L398.596 58.5479L398.938 54.5625ZM398.938 51.625L399.079 47.6275L395.842 47.5129L395.057 50.6549L398.938 51.625ZM442.438 51.625L446.318 50.6549L445.532 47.5119L442.295 47.6275L442.438 51.625ZM442.438 54.5625L442.779 58.5479L445.625 58.3039L446.318 55.5326L442.438 54.5625ZM435.062 55.625L435.826 59.5515L435.867 59.5435L435.908 59.5347L435.062 55.625ZM431.438 56.625L429.923 52.9228L429.892 52.9354L429.862 52.9484L431.438 56.625ZM429.062 58.25L431.804 61.1628L431.848 61.1213L431.891 61.0784L429.062 58.25ZM430.812 89.25L432.2 93.0018L435.959 91.6121L434.562 87.8557L430.812 89.25ZM369.25 90.625L367.421 94.1825L367.428 94.186L367.435 94.1894L369.25 90.625ZM357.438 82L354.575 84.7937L354.583 84.8025L354.592 84.8112L357.438 82ZM349 68.125L345.262 69.5501L345.267 69.5618L345.271 69.5735L349 68.125ZM347.375 33.75L343.501 32.7548L343.498 32.7673L343.494 32.7799L347.375 33.75ZM352 22.0625L348.555 20.0306L352 22.0625ZM358.812 13.3125L356.029 10.4395L356.018 10.4505L356.007 10.4615L358.812 13.3125ZM376.188 3L377.437 6.7997L377.452 6.7948L377.467 6.78978L376.188 3ZM385.312 0.75L385.886 4.70864L385.914 4.70458L385.942 4.70012L385.312 0.75ZM407.125 0.9375L406.576 4.89962L406.598 4.90263L406.619 4.9054L407.125 0.9375ZM419.812 3L419.036 6.92381L419.054 6.92752L419.073 6.93105L419.812 3ZM429.812 4.625L433.607 5.88991L435.16 1.2314L430.284 0.652859L429.812 4.625ZM431.938 29.125L435.732 30.3899L436.183 29.0374L435.677 27.7046L431.938 29.125ZM433.334 28.8564C431.957 25.8017 430.582 23.0878 429.203 20.7305L422.297 24.7695C423.502 26.8289 424.751 29.2816 426.041 32.1436L433.334 28.8564ZM429.219 20.7585C427.776 18.2449 425.93 15.7053 423.717 13.1382L417.658 18.3618C419.612 20.6281 421.141 22.7551 422.281 24.7415L429.219 20.7585ZM423.717 13.1382C421.417 10.4705 418.908 8.22949 416.178 6.45738L411.822 13.1676C413.842 14.4788 415.791 16.1962 417.658 18.3618L423.717 13.1382ZM416.178 6.45738C413.398 4.65282 410.1 3.2385 406.361 2.15742L404.139 9.84258C407.317 10.7615 409.852 11.8888 411.822 13.1676L416.178 6.45738ZM406.361 2.15742C402.49 1.03809 398.297 0.5 393.812 0.5V8.5C397.661 8.5 401.093 8.96191 404.139 9.84258L406.361 2.15742ZM393.812 0.5C388.753 0.5 384.048 1.53493 379.774 3.67229L383.351 10.8277C386.41 9.2984 389.872 8.5 393.812 8.5V0.5ZM379.774 3.67229C375.634 5.74235 372.145 8.49012 369.381 11.9334L375.619 16.9416C377.605 14.4682 380.158 12.4243 383.351 10.8277L379.774 3.67229ZM369.359 11.9604C366.773 15.24 364.616 19.0035 362.868 23.2171L370.257 26.2829C371.759 22.6631 373.561 19.5517 375.641 16.9146L369.359 11.9604ZM362.86 23.237C361.17 27.3734 359.961 31.5742 359.243 35.8357L367.132 37.1643C367.748 33.5091 368.789 29.8766 370.265 26.263L362.86 23.237ZM359.244 35.8288C358.539 39.971 358.188 44.1748 358.188 48.4375H366.188C366.188 44.6169 366.503 40.8623 367.131 37.1712L359.244 35.8288ZM358.188 48.4375C358.188 52.675 358.563 56.8899 359.313 61.0796L367.187 59.6704C366.521 55.9434 366.188 52.2 366.188 48.4375H358.188ZM359.314 61.0869C360.077 65.3055 361.33 69.4808 363.061 73.6094L370.439 70.5156C368.92 66.8942 367.84 63.2778 367.186 59.6631L359.314 61.0869ZM363.075 73.6429C364.876 77.8292 367.109 81.5603 369.795 84.8021L375.955 79.6979C373.808 77.1063 371.957 74.0458 370.425 70.4821L363.075 73.6429ZM369.795 84.8021C372.594 88.1808 376.089 90.8916 380.211 92.9527L383.789 85.7973C380.578 84.1918 377.989 82.1525 375.955 79.6979L369.795 84.8021ZM380.26 92.9767C384.56 95.0541 389.267 96.0625 394.312 96.0625V88.0625C390.358 88.0625 386.857 87.2793 383.74 85.7733L380.26 92.9767ZM394.312 96.0625C403.871 96.0625 411.713 93.9665 416.444 88.5759L410.431 83.2991C407.995 86.0752 403.087 88.0625 394.312 88.0625V96.0625ZM417.438 85.9375V60.5625H409.438V85.9375H417.438ZM417.438 60.5625C417.438 58.4554 416.529 56.6664 415.116 55.3372L409.634 61.1628C409.667 61.1945 409.604 61.1441 409.537 60.9981C409.466 60.843 409.438 60.6828 409.438 60.5625H417.438ZM415.203 55.4216C414.124 54.342 412.866 53.5013 411.452 52.9228L408.423 60.3272C408.842 60.4987 409.209 60.7413 409.547 61.0784L415.203 55.4216ZM411.452 52.9228C410.186 52.405 408.665 52.011 406.994 51.6947L405.506 59.5553C406.918 59.8223 407.855 60.095 408.423 60.3272L411.452 52.9228ZM407.118 51.7203C405.561 51.3743 404.203 51.1176 403.08 50.9711L402.045 58.9039C402.838 59.0074 403.939 59.2091 405.382 59.5297L407.118 51.7203ZM403.08 50.9711C402.042 50.8357 400.77 50.7049 399.279 50.5771L398.596 58.5479C400.022 58.6701 401.167 58.7893 402.045 58.9039L403.08 50.9711ZM402.818 53.5924C402.752 53.3287 402.715 53.1455 402.696 53.0299C402.691 53.0027 402.688 52.982 402.686 52.9674C402.684 52.9526 402.683 52.9456 402.683 52.9457C402.683 52.9459 402.684 52.9483 402.684 52.9528C402.684 52.9572 402.685 52.9642 402.685 52.9734C402.686 52.9914 402.688 53.0216 402.688 53.0625H394.688C394.688 53.9123 394.876 54.8095 395.057 55.5326L402.818 53.5924ZM402.688 53.0625C402.688 53.171 402.68 53.2354 402.68 53.2385C402.679 53.2459 402.681 53.225 402.691 53.1697C402.711 53.0557 402.75 52.8693 402.818 52.5951L395.057 50.6549C394.889 51.3275 394.688 52.2307 394.688 53.0625H402.688ZM398.796 55.6225C408.227 55.9564 415.533 56.125 420.688 56.125V48.125C415.675 48.125 408.481 47.9603 399.079 47.6275L398.796 55.6225ZM420.688 56.125C425.925 56.125 433.231 55.9564 442.58 55.6225L442.295 47.6275C432.978 47.9603 425.783 48.125 420.688 48.125V56.125ZM438.557 52.5951C438.657 52.9967 438.724 53.2788 438.763 53.4591C438.783 53.5515 438.789 53.5866 438.789 53.582C438.788 53.5796 438.782 53.5428 438.775 53.4832C438.771 53.4523 438.765 53.4035 438.761 53.3417C438.756 53.2836 438.75 53.1858 438.75 53.0625H446.75C446.75 52.6514 446.684 52.293 446.672 52.2227C446.645 52.067 446.613 51.9068 446.581 51.7597C446.516 51.4608 446.426 51.0867 446.318 50.6549L438.557 52.5951ZM438.75 53.0625C438.75 52.8944 438.762 52.7711 438.767 52.7262C438.772 52.6711 438.778 52.6371 438.778 52.6325C438.78 52.625 438.774 52.6578 438.756 52.7467C438.719 52.9221 438.656 53.1975 438.557 53.5924L446.318 55.5326C446.428 55.0941 446.52 54.7029 446.588 54.3783C446.624 54.204 446.75 53.6291 446.75 53.0625H438.75ZM442.096 50.5771C440.605 50.7049 439.333 50.8357 438.295 50.9711L439.33 58.9039C440.208 58.7893 441.353 58.6701 442.779 58.5479L442.096 50.5771ZM438.295 50.9711C437.18 51.1165 435.809 51.3712 434.217 51.7153L435.908 59.5347C437.399 59.2121 438.528 59.0085 439.33 58.9039L438.295 50.9711ZM434.299 51.6985C432.664 52.0164 431.175 52.4106 429.923 52.9228L432.952 60.3272C433.533 60.0894 434.461 59.8169 435.826 59.5515L434.299 51.6985ZM429.862 52.9484C428.495 53.5342 427.283 54.3725 426.234 55.4216L431.891 61.0784C432.259 60.7108 432.63 60.4658 433.013 60.3016L429.862 52.9484ZM426.321 55.3372C424.909 56.6664 424 58.4554 424 60.5625H432C432 60.6828 431.972 60.843 431.9 60.9981C431.833 61.1441 431.77 61.1945 431.804 61.1628L426.321 55.3372ZM424 60.5625V69.8125H432V60.5625H424ZM424 69.8125C424 78.0014 424.964 84.9988 427.063 90.6443L434.562 87.8557C432.911 83.4179 432 77.4569 432 69.8125H424ZM429.425 85.4982C422.669 87.9959 416.749 89.7885 411.645 90.9049L413.355 98.7201C418.918 97.5031 425.206 95.5874 432.2 93.0018L429.425 85.4982ZM411.645 90.9049C406.651 91.9974 400.883 92.5625 394.312 92.5625V100.562C401.325 100.562 407.682 99.9609 413.355 98.7201L411.645 90.9049ZM394.312 92.5625C390.548 92.5625 386.753 92.1746 382.925 91.3933L381.325 99.2317C385.664 100.117 389.994 100.562 394.312 100.562V92.5625ZM382.925 91.3933C379.26 90.6453 375.31 89.2221 371.065 87.0606L367.435 94.1894C372.19 96.6113 376.824 98.3131 381.325 99.2317L382.925 91.3933ZM371.079 87.0675C366.985 84.9631 363.393 82.3368 360.283 79.1888L354.592 84.8112C358.315 88.5799 362.599 91.7035 367.421 94.1825L371.079 87.0675ZM360.3 79.2063C357.392 76.2266 354.837 72.1036 352.729 66.6765L345.271 69.5735C347.663 75.7298 350.733 80.8567 354.575 84.7937L360.3 79.2063ZM352.738 66.6999C350.731 61.4383 349.688 55.3711 349.688 48.4375H341.688C341.688 56.1706 342.852 63.2284 345.262 69.5501L352.738 66.6999ZM349.688 48.4375C349.688 43.4279 350.22 38.862 351.256 34.7201L343.494 32.7799C342.28 37.638 341.688 42.8637 341.688 48.4375H349.688ZM351.249 34.7452C352.344 30.4832 353.759 26.9534 355.445 24.0944L348.555 20.0306C346.407 23.6716 344.739 27.9334 343.501 32.7548L351.249 34.7452ZM355.445 24.0944C357.19 21.1367 359.247 18.4968 361.618 16.1635L356.007 10.4615C353.128 13.2948 350.644 16.4883 348.555 20.0306L355.445 24.0944ZM361.596 16.1855C364.048 13.8102 366.549 11.9204 369.093 10.4823L365.157 3.51775C361.951 5.32959 358.911 7.64813 356.029 10.4395L361.596 16.1855ZM369.093 10.4823C371.738 8.98759 374.518 7.76015 377.437 6.7997L374.938 -0.799703C371.524 0.323185 368.262 1.76241 365.157 3.51775L369.093 10.4823ZM377.467 6.78978C380.483 5.77162 383.287 5.08539 385.886 4.70864L384.739 -3.20864C381.588 -2.75205 378.309 -1.93828 374.908 -0.789783L377.467 6.78978ZM385.942 4.70012C388.618 4.27357 391.241 4.0625 393.812 4.0625V-3.9375C390.801 -3.9375 387.757 -3.69024 384.683 -3.20012L385.942 4.70012ZM393.812 4.0625C398.313 4.0625 402.566 4.34383 406.576 4.89962L407.674 -3.02462C403.267 -3.63549 398.645 -3.9375 393.812 -3.9375V4.0625ZM406.619 4.9054C410.778 5.43547 414.917 6.10825 419.036 6.92381L420.589 -0.92381C416.291 -1.77492 411.972 -2.47714 407.631 -3.0304L406.619 4.9054ZM419.073 6.93105C423.316 7.72929 426.751 8.28987 429.341 8.59714L430.284 0.652859C427.957 0.376794 424.725 -0.145961 420.552 -0.931047L419.073 6.93105ZM426.018 3.36009C425.193 5.83526 424.875 8.98106 424.875 12.5625H432.875C432.875 9.31061 433.182 7.16474 433.607 5.88991L426.018 3.36009ZM424.875 12.5625C424.875 18.7217 425.987 24.7234 428.198 30.5454L435.677 27.7046C433.805 22.7766 432.875 17.7366 432.875 12.5625H424.875ZM428.143 27.8601C428.235 27.5826 428.382 27.3154 428.575 27.0825C428.763 26.8544 428.957 26.7066 429.102 26.6181C429.361 26.4595 429.454 26.4958 429.159 26.5351L430.216 34.4649C431.997 34.2275 434.749 33.3393 435.732 30.3899L428.143 27.8601ZM450.875 2.125L451.07 -1.87025L448.805 -1.98074L447.547 -0.0938008L450.875 2.125ZM476.75 2.625L479.877 0.130095L478.676 -1.375H476.75V2.625ZM524.25 61.625L521.297 64.3233L521.309 64.3361L521.321 64.3488L524.25 61.625ZM527.562 65.1875L524.633 67.9113L525.82 69.1875H527.562V65.1875ZM528.062 65.1875V69.1875H531.98L532.062 65.2708L528.062 65.1875ZM527.688 11.9375L523.688 12.0264L523.689 12.046L523.69 12.0656L527.688 11.9375ZM513.812 5.0625L509.877 5.77804L510.421 8.77069L513.45 9.04607L513.812 5.0625ZM513.812 2.125L513.961 -1.87223L510.966 -1.98387L510.018 0.860089L513.812 2.125ZM548.375 2.125L552.17 0.860089L551.227 -1.96806L548.247 -1.87296L548.375 2.125ZM548.375 5.0625L548.739 9.04592L551.267 8.81506L552.134 6.42947L548.375 5.0625ZM534.562 11.9375L538.56 12.0907L538.561 12.0586L538.562 12.0264L534.562 11.9375ZM534.438 94.25L534.879 98.2255L538.593 97.8129L538.434 94.0799L534.438 94.25ZM533.312 94.375L530.208 96.8978L531.585 98.5916L533.754 98.3505L533.312 94.375ZM471.188 17.9375L474.292 15.4147L473.091 13.9375H471.188V17.9375ZM470.562 17.9375V13.9375H466.654L466.564 17.8449L470.562 17.9375ZM470.812 84.5L474.812 84.4121L474.811 84.3916L474.81 84.371L470.812 84.5ZM484.625 91.4375L488.462 90.3088L487.696 87.7013L484.989 87.4541L484.625 91.4375ZM484.625 94.375L484.474 98.3722L487.05 98.4694L488.203 96.1639L484.625 94.375ZM450.125 94.375L446.547 96.1639L447.693 98.4547L450.253 98.373L450.125 94.375ZM450.125 91.4375L449.747 87.4554L447.539 87.6652L446.547 89.6486L450.125 91.4375ZM463.938 84.5L459.94 84.3463L459.938 84.4231V84.5H463.938ZM464.188 10.1875L468.185 10.0559L468.128 8.3125L466.811 7.1683L464.188 10.1875ZM450.875 5.0625L447.243 6.73873L448.235 8.88805L450.597 9.0528L450.875 5.0625ZM450.68 6.12025C457.602 6.45793 466.298 6.625 476.75 6.625V-1.375C466.369 -1.375 457.814 -1.54126 451.07 -1.87025L450.68 6.12025ZM473.623 5.11991C502.998 41.9321 518.969 61.776 521.297 64.3233L527.203 58.9267C525.114 56.6407 509.418 37.1513 479.877 0.130095L473.623 5.11991ZM521.321 64.3488C521.425 64.4614 521.319 64.3472 521.423 64.4592C521.497 64.538 521.452 64.4898 521.524 64.568C521.79 64.854 521.458 64.4965 521.722 64.7802C521.743 64.8025 521.894 64.9654 521.913 64.9854C522.019 65.0999 521.9 64.9715 522.006 65.0855C522.089 65.1749 522.014 65.0948 522.097 65.1837C522.149 65.2398 522.09 65.1763 522.142 65.2322C522.154 65.2455 522.175 65.2671 522.187 65.2803C522.279 65.3798 522.183 65.2761 522.275 65.3751C522.284 65.3851 522.287 65.3885 522.297 65.3985C522.3 65.4024 522.304 65.4063 522.308 65.4102C522.311 65.4141 522.315 65.418 522.318 65.4218C522.358 65.4646 522.3 65.4024 522.34 65.445C522.345 65.4499 522.357 65.4633 522.361 65.4681C522.365 65.472 522.369 65.4758 522.372 65.4797C522.376 65.4835 522.379 65.4873 522.383 65.4911C522.386 65.495 522.39 65.4988 522.394 65.5026C522.397 65.5064 522.401 65.5102 522.404 65.514C522.408 65.5178 522.411 65.5216 522.415 65.5254C522.418 65.5292 522.422 65.533 522.425 65.5368C522.429 65.5406 522.432 65.5444 522.436 65.5481C522.439 65.5519 522.443 65.5557 522.446 65.5595C522.466 65.5806 522.759 65.8955 522.77 65.9074C523.394 66.5788 523.319 66.4977 523.805 67.0206C523.834 67.0514 523.979 67.2079 523.999 67.2294C524.079 67.3157 523.964 67.1915 524.044 67.2772C524.048 67.2822 524.061 67.2956 524.065 67.3005C524.088 67.3253 524.053 67.2872 524.076 67.312C524.098 67.3361 524.064 67.2993 524.086 67.3233C524.091 67.3283 524.103 67.3408 524.107 67.3457C524.117 67.3559 524.118 67.3576 524.128 67.3677C524.177 67.4203 524.119 67.3582 524.167 67.4103C524.396 67.6557 524.232 67.4803 524.426 67.6886C524.659 67.9393 524.292 67.5447 524.517 67.786C524.597 67.8725 524.51 67.7785 524.581 67.8556C524.583 67.8578 524.586 67.8603 524.588 67.8624C524.59 67.8653 524.591 67.8659 524.594 67.8687C524.602 67.8779 524.596 67.8713 524.604 67.88C524.625 67.9028 524.592 67.8673 524.613 67.8895C524.616 67.8928 524.614 67.8905 524.617 67.8937C524.617 67.894 524.617 67.8943 524.618 67.8946C524.618 67.8949 524.618 67.8953 524.619 67.8956C524.619 67.8959 524.619 67.8962 524.619 67.8965C524.62 67.8968 524.62 67.8971 524.62 67.8974C524.623 67.9001 524.619 67.8964 524.622 67.899C524.622 67.8993 524.622 67.8996 524.623 67.8998C524.623 67.9001 524.623 67.9004 524.623 67.9006C524.624 67.9018 524.625 67.9025 524.626 67.9034C524.626 67.9037 524.626 67.9039 524.626 67.9041C524.627 67.9043 524.627 67.9045 524.627 67.9047C524.627 67.9049 524.627 67.9051 524.628 67.9053C524.628 67.9055 524.628 67.9057 524.628 67.9058C524.629 67.9069 524.628 67.9059 524.629 67.9069C524.63 67.9082 524.629 67.9065 524.63 67.9078C524.63 67.9079 524.63 67.9081 524.63 67.9082C524.63 67.9084 524.631 67.9085 524.631 67.9086C524.632 67.9098 524.63 67.9082 524.631 67.9093C524.631 67.9094 524.632 67.9099 524.632 67.9099C524.632 67.91 524.632 67.9101 524.632 67.9102C524.632 67.9103 524.632 67.9103 524.632 67.9104C524.633 67.9106 524.633 67.9106 524.633 67.9108C524.633 67.911 524.633 67.9109 524.633 67.9111C524.633 67.9111 524.633 67.9111 524.633 67.9112C524.633 67.9112 524.633 67.9112 524.633 67.9112C524.633 67.9112 524.633 67.9113 524.633 67.9113C524.633 67.9113 524.633 67.9113 527.562 65.1875C530.492 62.4637 530.492 62.4637 530.492 62.4637C530.492 62.4637 530.492 62.4637 530.492 62.4637C530.492 62.4637 530.492 62.4636 530.492 62.4635C530.492 62.4634 530.491 62.4631 530.491 62.4629C530.491 62.4626 530.489 62.4611 530.489 62.4602C530.487 62.4582 530.483 62.4542 530.479 62.4498C530.478 62.4492 530.449 62.418 530.44 62.4081C530.437 62.4042 530.437 62.4049 530.433 62.4009C530.426 62.3928 530.434 62.4015 530.426 62.3933C530.422 62.389 530.427 62.3936 530.423 62.3893C530.421 62.3879 530.42 62.3867 530.419 62.3852C530.417 62.3834 530.413 62.3787 530.411 62.3767C530.411 62.3764 530.395 62.3595 530.394 62.3585C530.391 62.3552 530.388 62.3521 530.385 62.3487C530.384 62.3482 530.381 62.3442 530.38 62.3436C530.379 62.3419 530.377 62.3403 530.375 62.3385C530.365 62.3274 530.346 62.3066 530.333 62.2933C530.327 62.2867 530.293 62.2499 530.285 62.2411C530.1 62.0423 529.987 61.9203 529.664 61.5731C529.465 61.3596 529.431 61.3228 529.198 61.0721C529.16 61.0314 528.973 60.8299 528.926 60.7799C528.882 60.7325 528.827 60.673 528.781 60.6233C528.769 60.6111 528.717 60.5553 528.705 60.5424C528.694 60.5298 528.679 60.5142 528.667 60.5013C528.664 60.4982 528.651 60.4839 528.648 60.4806C528.645 60.4772 528.641 60.4737 528.638 60.4702C528.635 60.4668 528.632 60.4633 528.629 60.4598C528.584 60.4116 528.596 60.4243 528.55 60.3755C528.526 60.3491 528.495 60.3163 528.47 60.2893C528.391 60.2039 528.387 60.1997 528.305 60.1119C528.255 60.0582 528.014 59.7992 527.956 59.7362C527.595 59.3481 527.575 59.3264 527.179 58.9012L521.321 64.3488ZM527.562 69.1875H528.062V61.1875H527.562V69.1875ZM532.062 65.2708C532.229 57.2582 532.312 50.7896 532.312 45.875H524.312C524.312 50.7104 524.23 57.1168 524.063 65.1042L532.062 65.2708ZM532.312 45.875C532.312 36.1955 532.103 24.8383 531.685 11.8094L523.69 12.0656C524.105 25.0367 524.312 36.3045 524.312 45.875H532.312ZM531.687 11.8486C531.6 7.93826 529.003 5.34393 525.932 3.82211C522.958 2.3483 518.926 1.51089 514.175 1.07893L513.45 9.04607C517.865 9.44744 520.73 10.1725 522.38 10.9904C523.176 11.3847 523.504 11.7109 523.618 11.8572C523.69 11.9491 523.687 11.9683 523.688 12.0264L531.687 11.8486ZM517.748 4.34696C517.668 3.90829 517.614 3.58656 517.582 3.36693C517.565 3.25673 517.558 3.19397 517.555 3.16773C517.554 3.15546 517.555 3.16448 517.557 3.18971C517.558 3.20998 517.562 3.27753 517.562 3.375H509.562C509.562 3.81563 509.631 4.28649 509.668 4.53932C509.719 4.88219 509.79 5.30004 509.877 5.77804L517.748 4.34696ZM517.562 3.375C517.562 3.45699 517.557 3.51693 517.554 3.5511C517.55 3.58557 517.546 3.60159 517.547 3.59696C517.548 3.5926 517.552 3.573 517.562 3.53684C517.572 3.50087 517.586 3.45218 517.607 3.38991L510.018 0.860089C509.785 1.55974 509.562 2.43666 509.562 3.375H517.562ZM513.664 6.12223C520.408 6.37356 526.397 6.5 531.625 6.5V-1.5C526.52 -1.5 520.634 -1.62356 513.961 -1.87223L513.664 6.12223ZM531.625 6.5C535.028 6.5 540.668 6.37301 548.503 6.12296L548.247 -1.87296C540.415 -1.62301 534.888 -1.5 531.625 -1.5V6.5ZM544.58 3.38991C544.601 3.45218 544.616 3.50087 544.625 3.53684C544.635 3.573 544.639 3.5926 544.64 3.59696C544.641 3.60159 544.638 3.58557 544.634 3.5511C544.63 3.51693 544.625 3.45699 544.625 3.375H552.625C552.625 2.43666 552.403 1.55974 552.17 0.860089L544.58 3.38991ZM544.625 3.375C544.625 3.54464 544.614 3.6532 544.606 3.71068C544.597 3.76837 544.594 3.75687 544.616 3.69553L552.134 6.42947C552.507 5.40481 552.625 4.34855 552.625 3.375H544.625ZM548.011 1.07908C543.279 1.51121 539.261 2.34918 536.296 3.82531C533.23 5.35145 530.65 7.94776 530.563 11.8486L538.562 12.0264C538.563 11.9638 538.562 11.9423 538.633 11.8504C538.746 11.7049 539.071 11.3801 539.86 10.9872C541.499 10.1717 544.346 9.44712 548.739 9.04592L548.011 1.07908ZM530.565 11.7843C530.064 24.8754 529.812 37.7807 529.812 50.5H537.812C537.812 37.8859 538.061 25.0829 538.56 12.0907L530.565 11.7843ZM529.812 50.5C529.812 69.8884 530.021 84.5406 530.441 94.4201L538.434 94.0799C538.021 84.376 537.812 69.8616 537.812 50.5H529.812ZM533.996 90.2745L532.871 90.3995L533.754 98.3505L534.879 98.2255L533.996 90.2745ZM536.417 91.8522L474.292 15.4147L468.083 20.4603L530.208 96.8978L536.417 91.8522ZM471.188 13.9375H470.562V21.9375H471.188V13.9375ZM466.564 17.8449C466.313 28.668 466.188 39.5947 466.188 50.625H474.188C474.188 39.6553 474.312 28.7904 474.561 18.0301L466.564 17.8449ZM466.188 50.625C466.188 60.3462 466.397 71.6826 466.815 84.629L474.81 84.371C474.395 71.4841 474.188 60.2372 474.188 50.625H466.188ZM466.813 84.5879C466.899 88.4881 469.452 91.1055 472.533 92.6526C475.503 94.1446 479.527 94.9885 484.261 95.4209L484.989 87.4541C480.598 87.0531 477.757 86.3242 476.123 85.5037C475.337 85.1089 475.011 84.7812 474.895 84.6302C474.819 84.5314 474.813 84.4959 474.812 84.4121L466.813 84.5879ZM480.788 92.5662C480.863 92.8242 480.905 93.0049 480.926 93.119C480.949 93.242 480.938 93.2322 480.938 93.125H488.938C488.938 92.1404 488.709 91.1477 488.462 90.3088L480.788 92.5662ZM480.938 93.125C480.938 92.8506 481.011 92.6586 481.047 92.5861L488.203 96.1639C488.656 95.258 488.938 94.2327 488.938 93.125H480.938ZM484.776 90.3778C478.113 90.1264 472.145 90 466.875 90V98C472.022 98 477.887 98.1236 484.474 98.3722L484.776 90.3778ZM466.875 90C463.472 90 457.832 90.127 449.997 90.377L450.253 98.373C458.085 98.123 463.612 98 466.875 98V90ZM453.703 92.5861C453.739 92.6586 453.812 92.8506 453.812 93.125H445.812C445.812 94.2327 446.094 95.258 446.547 96.1639L453.703 92.5861ZM453.812 93.125C453.812 93.0452 453.815 92.9869 453.819 92.9479C453.822 92.9087 453.825 92.894 453.824 92.9002C453.823 92.9064 453.816 92.9393 453.799 92.9935C453.782 93.0479 453.752 93.1282 453.703 93.2264L446.547 89.6486C445.954 90.8348 445.812 92.0901 445.812 93.125H453.812ZM450.503 95.4196C455.272 94.9664 459.313 94.1114 462.28 92.6213C465.349 91.0796 467.938 88.4458 467.938 84.5H459.938C459.938 84.5497 459.944 84.5505 459.889 84.6237C459.789 84.755 459.478 85.0762 458.689 85.4724C457.052 86.2949 454.186 87.0336 449.747 87.4554L450.503 95.4196ZM467.935 84.6537C468.436 71.6039 468.688 58.7193 468.688 46H460.688C460.688 58.614 460.439 71.3961 459.94 84.3463L467.935 84.6537ZM468.688 46C468.688 32.2204 468.521 20.237 468.185 10.0559L460.19 10.3191C460.521 20.388 460.688 32.2796 460.688 46H468.688ZM466.811 7.1683C462.553 3.46787 457.249 1.49748 451.153 1.0722L450.597 9.0528C455.251 9.37752 458.822 10.8238 461.564 13.2067L466.811 7.1683ZM454.507 3.38627C454.462 3.28816 454.456 3.25722 454.464 3.28719C454.472 3.31732 454.5 3.43578 454.5 3.625H446.5C446.5 4.81437 446.848 5.88189 447.243 6.73873L454.507 3.38627ZM454.5 3.625C454.5 3.49452 454.53 3.85292 454.203 4.3438L447.547 -0.0938008C446.72 1.14708 446.5 2.50548 446.5 3.625H454.5Z" fill="black" mask="url(#path-1-outside-1_37_2)"/>
</svg>
